<svg xmlns="http://www.w3.org/2000/svg" xmlns:xlink="http://www.w3.org/1999/xlink" viewBox="0 0 534.36 342.17"><defs><style>.cls-1,.cls-5,.cls-75,.cls-76{fill:none;}.cls-2{isolation:isolate;}.cls-3{fill:#f0f5f7;}.cls-4,.cls-6{fill:#dce8ef;}.cls-5{stroke:#f0f5f7;stroke-miterlimit:10;stroke-width:3px;}.cls-57,.cls-6{mix-blend-mode:multiply;}.cls-7{fill:#f9fbfc;}.cls-8{fill:#c3d3dd;}.cls-9{fill:url(#linear-gradient);}.cls-10{fill:url(#New_Gradient_Swatch_4);}.cls-11{fill:#b0b7f7;}.cls-12{fill:#ec827d;}.cls-13{fill:#56548c;}.cls-14,.cls-23{fill:#fbd15b;}.cls-15{fill:#bee1f4;}.cls-16{fill:#606bf1;}.cls-17{clip-path:url(#clip-path);}.cls-18{fill:#112b46;}.cls-19{fill:url(#New_Gradient_Swatch_18);}.cls-20{fill:url(#New_Gradient_Swatch_3);}.cls-21{fill:url(#New_Gradient_Swatch_18-2);}.cls-22{fill:url(#New_Gradient_Swatch_18-3);}.cls-23{fill-rule:evenodd;}.cls-24{fill:#878cf0;}.cls-25{fill:url(#New_Gradient_Swatch_5);}.cls-26{fill:url(#linear-gradient-2);}.cls-27{fill:url(#New_Gradient_Swatch_5-2);}.cls-28{fill:url(#linear-gradient-3);}.cls-29{fill:url(#linear-gradient-4);}.cls-30{fill:url(#New_Gradient_Swatch_5-3);}.cls-31{fill:#e3b453;}.cls-32{fill:#f4c159;}.cls-33{fill:#cfa44c;}.cls-34{fill:#bcbec0;}.cls-35{fill:url(#New_Gradient_Swatch_18-4);}.cls-36{fill:#efa78b;}.cls-37{fill:#ffc8af;}.cls-38{fill:url(#New_Gradient_Swatch_4-2);}.cls-39{fill:#404a54;}.cls-40{fill:#0a2033;}.cls-41{fill:#2f3a44;}.cls-42{fill:url(#New_Gradient_Swatch_4-3);}.cls-43{fill:url(#linear-gradient-5);}.cls-44{fill:url(#linear-gradient-6);}.cls-45{fill:#3030ef;}.cls-46{fill:url(#New_Gradient_Swatch_18-5);}.cls-47{fill:url(#New_Gradient_Swatch_18-6);}.cls-48{fill:url(#linear-gradient-7);}.cls-49{fill:url(#linear-gradient-8);}.cls-50{fill:url(#linear-gradient-9);}.cls-51{fill:#a5b7c6;}.cls-52{fill:#41417a;}.cls-53{fill:#bdccd6;}.cls-54{fill:url(#New_Gradient_Swatch_6);}.cls-55{fill:url(#New_Gradient_Swatch_6-2);}.cls-56{fill:url(#New_Gradient_Swatch_6-3);}.cls-57{fill:#e9e5d9;}.cls-58{fill:url(#New_Gradient_Swatch_18-7);}.cls-59{fill:#8fa6b7;}.cls-60{fill:url(#New_Gradient_Swatch_18-8);}.cls-61{fill:url(#New_Gradient_Swatch_6-4);}.cls-62{fill:url(#New_Gradient_Swatch_18-9);}.cls-63{fill:#11477c;}.cls-64{fill:url(#New_Gradient_Swatch_18-10);}.cls-65{fill:url(#New_Gradient_Swatch_18-11);}.cls-66{fill:url(#linear-gradient-10);}.cls-67{fill:url(#New_Gradient_Swatch_6-5);}.cls-68{fill:url(#New_Gradient_Swatch_6-6);}.cls-69{fill:#ccd9e2;}.cls-70{fill:#b1b2f3;}.cls-71{fill:#5566e5;}.cls-72{fill:#eabc4b;}.cls-73{fill:#fff;}.cls-74{fill:#758d9e;}.cls-75,.cls-76{stroke:#c3d3dd;stroke-linecap:round;stroke-linejoin:round;}.cls-76{stroke-dasharray:3.92 3.92;}</style><linearGradient id="linear-gradient" x1="129.6" y1="116.2" x2="440.09" y2="116.2" gradientTransform="translate(168.65 401.04) rotate(-90)" gradientUnits="userSpaceOnUse"><stop offset="0" stop-color="#878cf0"/><stop offset="1" stop-color="#6d73ed"/></linearGradient><linearGradient id="New_Gradient_Swatch_4" x1="207.22" y1="41.64" x2="207.22" y2="140.81" gradientTransform="translate(114.11 300.33) rotate(-90)" gradientUnits="userSpaceOnUse"><stop offset="0" stop-color="#68acff"/><stop offset="0.23" stop-color="#65a7ff"/><stop offset="0.5" stop-color="#5b99ff"/><stop offset="0.79" stop-color="#4a81ff"/><stop offset="1" stop-color="#3b6bff"/></linearGradient><clipPath id="clip-path" transform="translate(-3.42 -2.31)"><rect class="cls-1" x="160.14" y="7.14" width="103.4" height="146.01" transform="translate(291.99 -131.7) rotate(90)"/></clipPath><radialGradient id="New_Gradient_Swatch_18" cx="241.57" cy="81.24" r="29.78" gradientUnits="userSpaceOnUse"><stop offset="0" stop-color="#ffc8af"/><stop offset="1" stop-color="#ffbb9c"/></radialGradient><linearGradient id="New_Gradient_Swatch_3" x1="179.72" y1="39.83" x2="198.49" y2="72.33" gradientUnits="userSpaceOnUse"><stop offset="0" stop-color="#5b2a8d"/><stop offset="0.17" stop-color="#4b2786"/><stop offset="0.43" stop-color="#38247d"/><stop offset="0.7" stop-color="#2e2379"/><stop offset="1" stop-color="#2a2277"/></linearGradient><radialGradient id="New_Gradient_Swatch_18-2" cx="225.41" cy="98.98" r="35.13" xlink:href="#New_Gradient_Swatch_18"/><radialGradient id="New_Gradient_Swatch_18-3" cx="200.89" cy="55.02" r="10.12" xlink:href="#New_Gradient_Swatch_18"/><linearGradient id="New_Gradient_Swatch_5" x1="441.74" y1="319.1" x2="441.74" y2="368.45" gradientTransform="matrix(-0.84, -0.55, -0.55, 0.84, 750.29, 224.27)" gradientUnits="userSpaceOnUse"><stop offset="0" stop-color="#c6dff2"/><stop offset="1" stop-color="#9bb7fc"/></linearGradient><linearGradient id="linear-gradient-2" x1="441.28" y1="322.95" x2="441.28" y2="374.71" gradientTransform="matrix(-0.84, -0.55, -0.55, 0.84, 750.29, 224.27)" gradientUnits="userSpaceOnUse"><stop offset="0" stop-color="#9bb7fc"/><stop offset="0.25" stop-color="#96b3fc"/><stop offset="0.55" stop-color="#87a9fb"/><stop offset="0.88" stop-color="#6f98fa"/><stop offset="1" stop-color="#6490fa"/></linearGradient><linearGradient id="New_Gradient_Swatch_5-2" x1="171.81" y1="233.82" x2="171.81" y2="282.87" gradientTransform="translate(-45.24 36.99) rotate(-7.38)" xlink:href="#New_Gradient_Swatch_5"/><linearGradient id="linear-gradient-3" x1="172.96" y1="237.57" x2="172.96" y2="288.68" gradientTransform="translate(-45.24 36.99) rotate(-7.38)" xlink:href="#linear-gradient-2"/><linearGradient id="linear-gradient-4" x1="178.69" y1="237.41" x2="178.69" y2="295.02" gradientTransform="matrix(1, 0, 0, 1, 0, 0)" xlink:href="#linear-gradient-2"/><linearGradient id="New_Gradient_Swatch_5-3" x1="178.61" y1="242.15" x2="178.61" y2="303.4" gradientTransform="matrix(1, 0, 0, 1, 0, 0)" xlink:href="#New_Gradient_Swatch_5"/><radialGradient id="New_Gradient_Swatch_18-4" cx="817.84" cy="141.54" r="24.44" gradientTransform="matrix(-1, 0, 0, 1, 1275.64, 0)" xlink:href="#New_Gradient_Swatch_18"/><linearGradient id="New_Gradient_Swatch_4-2" x1="906.95" y1="321.13" x2="906.95" y2="335.32" gradientTransform="matrix(-1, 0, 0, 1, 1275.64, 0)" xlink:href="#New_Gradient_Swatch_4"/><linearGradient id="New_Gradient_Swatch_4-3" x1="860.43" y1="323.04" x2="860.43" y2="334.39" gradientTransform="matrix(-1, 0, 0, 1, 1275.64, 0)" xlink:href="#New_Gradient_Swatch_4"/><linearGradient id="linear-gradient-5" x1="796.42" y1="184.48" x2="825.44" y2="184.48" gradientTransform="matrix(-1, 0, 0, 1, 1275.64, 0)" gradientUnits="userSpaceOnUse"><stop offset="0" stop-color="#606bf1"/><stop offset="1" stop-color="#433aff"/></linearGradient><linearGradient id="linear-gradient-6" x1="772.49" y1="165.78" x2="814.94" y2="239.31" xlink:href="#linear-gradient-5"/><radialGradient id="New_Gradient_Swatch_18-5" cx="842.61" cy="205.6" r="30.94" gradientTransform="matrix(-1, 0, 0, 1, 1275.64, 0)" xlink:href="#New_Gradient_Swatch_18"/><radialGradient id="New_Gradient_Swatch_18-6" cx="817.85" cy="141.55" r="24.43" gradientTransform="matrix(-1, 0, 0, 1, 1272.22, -2.31)" xlink:href="#New_Gradient_Swatch_18"/><linearGradient id="linear-gradient-7" x1="804.94" y1="156.83" x2="804.94" y2="204.48" xlink:href="#linear-gradient-5"/><linearGradient id="linear-gradient-8" x1="823.77" y1="114.75" x2="823.77" y2="142.35" gradientTransform="matrix(-1, 0, 0, 1, 1275.64, 0)" gradientUnits="userSpaceOnUse"><stop offset="0" stop-color="#56549e"/><stop offset="0.99" stop-color="#2e2c71"/></linearGradient><linearGradient id="linear-gradient-9" x1="467.83" y1="145.98" x2="467.83" y2="157.98" gradientTransform="matrix(1, 0, 0, 1, 0, 0)" xlink:href="#linear-gradient-5"/><linearGradient id="New_Gradient_Swatch_6" x1="150.04" y1="158.46" x2="150.04" y2="168.13" gradientUnits="userSpaceOnUse"><stop offset="0" stop-color="#df697b"/><stop offset="1" stop-color="#be2773"/></linearGradient><linearGradient id="New_Gradient_Swatch_6-2" x1="95.7" y1="124.1" x2="95.7" y2="217.06" xlink:href="#New_Gradient_Swatch_6"/><linearGradient id="New_Gradient_Swatch_6-3" x1="55.78" y1="108.25" x2="79.42" y2="199.52" xlink:href="#New_Gradient_Swatch_6"/><radialGradient id="New_Gradient_Swatch_18-7" cx="167.68" cy="164.71" r="10.73" xlink:href="#New_Gradient_Swatch_18"/><radialGradient id="New_Gradient_Swatch_18-8" cx="130.79" cy="179.22" r="6.53" xlink:href="#New_Gradient_Swatch_18"/><linearGradient id="New_Gradient_Swatch_6-4" x1="139.45" y1="112.65" x2="111.04" y2="140.3" xlink:href="#New_Gradient_Swatch_6"/><radialGradient id="New_Gradient_Swatch_18-9" cx="83.25" cy="320.86" r="5.25" xlink:href="#New_Gradient_Swatch_18"/><radialGradient id="New_Gradient_Swatch_18-10" cx="-8228.03" cy="-7983.26" r="4.63" gradientTransform="matrix(1.11, 0.24, -0.24, 1.11, 7254.87, 11118.7)" xlink:href="#New_Gradient_Swatch_18"/><radialGradient id="New_Gradient_Swatch_18-11" cx="112.89" cy="97.33" r="15.85" xlink:href="#New_Gradient_Swatch_18"/><linearGradient id="linear-gradient-10" x1="117.48" y1="70.49" x2="117.48" y2="96.26" gradientUnits="userSpaceOnUse"><stop offset="0" stop-color="#68acff"/><stop offset="0.16" stop-color="#5d9dff"/><stop offset="0.49" stop-color="#4b81ff"/><stop offset="0.78" stop-color="#3f71ff"/><stop offset="1" stop-color="#3b6bff"/></linearGradient><linearGradient id="New_Gradient_Swatch_6-5" x1="140.56" y1="213.12" x2="146.08" y2="213.12" xlink:href="#New_Gradient_Swatch_6"/><linearGradient id="New_Gradient_Swatch_6-6" x1="141.53" y1="212.05" x2="157.98" y2="212.05" xlink:href="#New_Gradient_Swatch_6"/></defs><g class="cls-2"><g id="OBJECTS"><rect class="cls-3" x="8.97" y="243.08" width="516.49" height="91.37" rx="36.43"/><rect class="cls-3" x="56.46" y="156.18" width="421.5" height="91.37" rx="36.43"/><rect class="cls-3" x="32.51" y="68.21" width="469.41" height="91.37" rx="36.43"/><rect class="cls-3" x="94.13" y="17.5" width="387.23" height="91.37" rx="36.43"/><rect class="cls-4" x="281.61" y="178.35" width="82.21" height="155.56"/><rect class="cls-5" x="290.15" y="287.91" width="65.13" height="39.19"/><rect class="cls-5" x="290.15" y="236.87" width="65.13" height="39.19"/><rect class="cls-5" x="290.15" y="185.83" width="65.13" height="39.19"/><rect class="cls-3" x="311.35" y="294.56" width="22.73" height="3.33"/><rect class="cls-3" x="311.35" y="242.29" width="22.73" height="3.33"/><rect class="cls-3" x="311.35" y="190.02" width="22.73" height="3.33"/><rect class="cls-4" y="333.91" width="534.36" height="8.26" rx="3.64"/><rect class="cls-6" x="112.91" y="2.91" width="337.02" height="197.53" rx="3.21"/><rect class="cls-4" x="114.05" width="334.74" height="196.2" rx="3.21"/><rect class="cls-7" x="125.68" y="17" width="262.06" height="18.27" rx="0.5"/><path class="cls-8" d="M390.66,19.81V37.08H129.6V19.81H390.66m0-1H129.6a1,1,0,0,0-1,1V37.08a1,1,0,0,0,1,1H390.66a1,1,0,0,0,1-1V19.81a1,1,0,0,0-1-1Z" transform="translate(-3.42 -2.31)"/><rect class="cls-4" x="210.82" y="-33.72" width="5.25" height="124.33" transform="translate(238.47 -187.31) rotate(90)"/><path class="cls-4" d="M146.36,28.44a5.12,5.12,0,1,1-5.11-5.11A5.11,5.11,0,0,1,146.36,28.44Z" transform="translate(-3.42 -2.31)"/><rect class="cls-7" x="392.36" y="17" width="44.81" height="18.27" rx="0.5"/><path class="cls-8" d="M440.09,19.81V37.08H396.28V19.81h43.81m0-1H396.28a1,1,0,0,0-1,1V37.08a1,1,0,0,0,1,1h43.81a1,1,0,0,0,1-1V19.81a1,1,0,0,0-1-1Z" transform="translate(-3.42 -2.31)"/><rect class="cls-9" x="214.67" y="-39.05" width="140.36" height="310.49" rx="2.13" transform="translate(397.62 -170.95) rotate(90)"/><rect class="cls-10" x="168.48" y="24.72" width="77.48" height="136.77" rx="1.44" transform="translate(296.91 -116.42) rotate(90)"/><polyline class="cls-11" points="135.41 167.64 190.73 167.64 190.73 166.51 135.41 166.51"/><polyline class="cls-11" points="135.41 160.43 190.73 160.43 190.73 159.29 135.41 159.29"/><polyline class="cls-11" points="135.41 153.21 272.18 153.21 272.18 152.08 135.41 152.08"/><polyline class="cls-11" points="135.41 146 272.18 146 272.18 144.86 135.41 144.86"/><polyline class="cls-11" points="135.41 138.78 272.18 138.78 272.18 137.65 135.41 137.65"/><polyline class="cls-11" points="290.66 167.64 315.38 167.64 315.38 166.51 290.66 166.51"/><polyline class="cls-11" points="290.66 160.43 315.38 160.43 315.38 159.29 290.66 159.29"/><polyline class="cls-11" points="290.66 153.21 351.77 153.21 351.77 152.08 290.66 152.08"/><polyline class="cls-11" points="290.66 146 351.77 146 351.77 144.86 290.66 144.86"/><polyline class="cls-11" points="290.66 138.78 351.77 138.78 351.77 137.65 290.66 137.65"/><rect class="cls-12" x="290.66" y="52.06" width="61.11" height="77.48" rx="1.63"/><rect class="cls-13" x="366.32" y="52.06" width="61.11" height="35.1" rx="1.63"/><rect class="cls-14" x="366.32" y="92.02" width="61.11" height="35.1" rx="1.63"/><rect class="cls-15" x="366.32" y="131.97" width="61.11" height="35.1" rx="1.63"/><circle class="cls-16" cx="122.29" cy="8" r="3.1"/><path class="cls-14" d="M140.05,10.3A3.1,3.1,0,1,1,137,7.2,3.1,3.1,0,0,1,140.05,10.3Z" transform="translate(-3.42 -2.31)"/><circle class="cls-12" cx="144.76" cy="8" r="3.1"/><circle class="cls-12" cx="400.3" cy="71.92" r="11.75" transform="translate(234.91 442.68) rotate(-76.72)"/><path class="cls-7" d="M407.17,70.47l-9.05-5.23a1.69,1.69,0,0,0-2.52,1.46V77.14a1.68,1.68,0,0,0,2.52,1.46l9.05-5.22A1.68,1.68,0,0,0,407.17,70.47Z" transform="translate(-3.42 -2.31)"/><g class="cls-17"><path class="cls-18" d="M170.69,144.36c-.52,8.2.61,16.31,1.54,25,.06.46.08,1,.14,1.45.85,11.67-1.68,28.37-1.68,28.37.47.11.91.22,1.38.3a118.74,118.74,0,0,0,19.2,2.53c1.46.08,2.86.14,4.21.17a137.68,137.68,0,0,0,19.15-.88l1.62-.22s.83-50.63,1.84-55.28c-15.35,1.24-35.46-7.26-40.14-22.09C173.77,128.79,171.32,134.92,170.69,144.36Z" transform="translate(-3.42 -2.31)"/><path class="cls-19" d="M206.88,64.05c-.53.34-3.22.93-3.76,1.22,1.79,1.4,5.51,4,8.13,7.48,5.7,7.66,9.39,15.06,8.06,21.62,7.21,3.23,15,4.83,22.66,3.7,17.25-2.64,26.8-11.31,26.8-11.31a26.2,26.2,0,0,0,7.29-2.42c2.78-1.64,3.09-3.16,3.71-4.87s0-3-1.46-2.59S270.82,80,270.82,80s2.35-2.89,1.5-3.89S269,78,267.73,79.2A6.24,6.24,0,0,0,266,82.12s-15.79,5.67-23,5-18.49-4.33-26.16-12.61C213.38,70.79,210.07,66.8,206.88,64.05Z" transform="translate(-3.42 -2.31)"/><path class="cls-20" d="M213.75,52.45c-.38-.42-.79-.82-1.16-1.25a4.75,4.75,0,0,1-1.31-3c0-1.14.32-2.26.37-3.41a9.51,9.51,0,0,0-2.41-6.47,16.07,16.07,0,0,0-2.75-2.6,14.63,14.63,0,0,0-4.86-2.48c-4.13-1.08-7.13,1.54-7.48,1.48a13,13,0,0,0-8.24,1.54,12.14,12.14,0,0,0-4.59,6.14c-1.06,3-1.09,6.1-1.3,9.23a7.37,7.37,0,0,1-.89,3.53,26.14,26.14,0,0,1-2.66,2.71,6.82,6.82,0,0,0-1.35,5.62c.35,2,1.26,3.71-.34,5.5-.84,1-1.94,1.66-2.76,2.63-1.89,2.27-2,5.84.34,7.82,2.7,2.3,6.29.79,8.5-1.38,1-1,1.89-2.11,2.86-3.14a25.93,25.93,0,0,1,6.4-4.9c1.56-.87,3.25-1.75,3.81-3.58.62-2-1.18-3.68-.88-4.94.38-1.53,2.24-2.12,3.46-3.45s.88-3.17,1.73-7.47a22.42,22.42,0,0,1,3.07-7.53c3.1,2.61,6.42,3.21,7.19,6.84s-.67,9.53-1.49,11.71l-4.83.48V64.4a13.06,13.06,0,0,1,4.09,2.31c.35.27,1.15,0,1.52-.06a6.65,6.65,0,0,0,2.16-1,4.63,4.63,0,0,0,2-3.7,5.61,5.61,0,0,1,1-3.1c.62-.91,1.7-1.52,2.1-2.58a3.28,3.28,0,0,0-.54-2.88A9.06,9.06,0,0,0,213.75,52.45Z" transform="translate(-3.42 -2.31)"/><path class="cls-3" d="M213,73.87a37.15,37.15,0,0,0-6.75-7.16,13.37,13.37,0,0,0-4.09-2.33v1.09s-2.9,2.44-8.26,1a3.25,3.25,0,0,1-.73,1.36c-1.07,1.22-2.68,1.88-4,2.73a25.07,25.07,0,0,0-7.06,6.15A19.5,19.5,0,0,0,178.59,85a32.9,32.9,0,0,0-.44,9.08,80.37,80.37,0,0,0,1.53,8.28c1.16,5.5,1.7,11-.85,16.2a20,20,0,0,1-1,1.82,51.55,51.55,0,0,0-7,22.47c17.41,5.13,35.07,5.63,47.28,3-.29-3.93-1.63-17.9-2.19-20.54a24.89,24.89,0,0,1-.52-4.07c-11.55-4.27-21.45-14-28-24-3.13-4.83-8.51-16.8-2.14-21.45a9.88,9.88,0,0,1,1.06-.63C194.6,71,199.25,82.57,205,93a42.2,42.2,0,0,0,12.28,13.55c.82-3.26,1.8-6.3,2.62-8.7a10.86,10.86,0,0,0,.45-1.74C221.65,89.52,218.73,81.53,213,73.87Z" transform="translate(-3.42 -2.31)"/><path class="cls-21" d="M185.27,75.81c-6.37,4.65-1,16.62,2.14,21.45,6.52,10,16.42,19.7,28,24a35.55,35.55,0,0,0,9.23,2.16c18.26,1.71,30.22-4.7,30.22-4.7a28.28,28.28,0,0,0,8-.62c3.24-1,3.94-2.42,5-4s.79-3-.81-3-8.45,1.28-8.45,1.28,3.17-2.38,2.54-3.61-3.87,1.14-5.48,2a6.59,6.59,0,0,0-2.52,2.54s-17.55,1.76-24.74-.73a44.93,44.93,0,0,1-11.17-6A42.2,42.2,0,0,1,205,93c-5.72-10.4-10.37-22-18.64-17.79A9.88,9.88,0,0,0,185.27,75.81Z" transform="translate(-3.42 -2.31)"/><path class="cls-22" d="M202.18,62.41s4.42,0,5-.56c1-1,2.12-8.29,1.33-12s-4.09-4.23-7.19-6.84a22.42,22.42,0,0,0-3.07,7.53c-.85,4.3-.51,6.12-1.73,7.47s-3.08,1.92-3.46,3.45c-.3,1.26,1.5,2.92.88,4.94,5.4,1.58,8.26-1,8.26-1Z" transform="translate(-3.42 -2.31)"/></g><path class="cls-14" d="M324.64,74.06a19,19,0,1,1-19.05,19,19.07,19.07,0,0,1,19.05-19m0-1.58a20.63,20.63,0,1,0,20.63,20.63,20.63,20.63,0,0,0-20.63-20.63Z" transform="translate(-3.42 -2.31)"/><path class="cls-23" d="M332.42,87.12H338a14.81,14.81,0,0,1,1.28,5.45h-6.44A38.81,38.81,0,0,0,332.42,87.12ZM330,79.42A14.73,14.73,0,0,1,337.49,86h-5.26A22.68,22.68,0,0,0,330,79.42ZM325.26,86V78.43a15.51,15.51,0,0,1,3.36.54A22.1,22.1,0,0,1,331.14,86ZM318.11,99.1a38.57,38.57,0,0,1-.46-5.45h6.52V99.1Zm0-12h6.07v5.45h-6.53A37.26,37.26,0,0,1,318.1,87.12ZM320.82,79a14.73,14.73,0,0,1,3.35-.51V86h-5.89A22.08,22.08,0,0,1,320.82,79Zm-9,7.09a14.66,14.66,0,0,1,7.71-6.66,22.45,22.45,0,0,0-2.3,6.66Zm4.78,6.53H310a14.36,14.36,0,0,1,1.26-5.45H317A36,36,0,0,0,316.56,92.57ZM317,99.1h-5.74A14.4,14.4,0,0,1,310,93.65h6.59A38.57,38.57,0,0,0,317,99.1Zm.18,1.09a22.42,22.42,0,0,0,2.32,6.67,14.66,14.66,0,0,1-7.72-6.67Zm7,0v7.59a13.86,13.86,0,0,1-3.31-.5,21.53,21.53,0,0,1-2.56-7.09Zm6.95,0a21.73,21.73,0,0,1-2.54,7.07,15.21,15.21,0,0,1-3.32.5v-7.57Zm-5.86-6.54h6.51a37.14,37.14,0,0,1-.46,5.45h-6.05Zm6.52-1.08h-6.52V87.12h6.06A37.26,37.26,0,0,1,331.78,92.57Zm1.08,1.08h6.44A14.78,14.78,0,0,1,338,99.1h-5.6A38.57,38.57,0,0,0,332.86,93.65Zm4.62,6.54a14.7,14.7,0,0,1-7.55,6.62,22.16,22.16,0,0,0,2.29-6.62Z" transform="translate(-3.42 -2.31)"/><path class="cls-24" d="M415.88,144.46V161H384.72V144.46L399.23,156a1.69,1.69,0,0,0,2.12,0Z" transform="translate(-3.42 -2.31)"/><polygon class="cls-24" points="409.3 140.33 396.88 150.22 384.45 140.33 409.3 140.33"/><path class="cls-12" d="M400.3,98.8a8.17,8.17,0,0,0-8.17,8.17c0,8.09,8.17,18,8.17,18s8.17-9.89,8.17-18A8.17,8.17,0,0,0,400.3,98.8Zm0,12.48a4.32,4.32,0,1,1,4.31-4.31A4.31,4.31,0,0,1,400.3,111.28Z" transform="translate(-3.42 -2.31)"/><path class="cls-25" d="M179.15,269.33a6.48,6.48,0,0,1,1.64-5.59c1.23-1.27,2.75-1.7,3.78-1.08a6.68,6.68,0,0,1,2.5-5.79,3.73,3.73,0,0,1,3.84-.83,9.27,9.27,0,0,1,5.25-5.75,4.38,4.38,0,0,1,4.44.37,6.31,6.31,0,0,1,3.62-2c1.66-.15,3.51,1.25,3.14,2.88a3.36,3.36,0,0,1,2.1,3,4.78,4.78,0,0,1-2,3.39,3.94,3.94,0,0,1,.77,5.13,5.06,5.06,0,0,1-4.53,2.66,4,4,0,0,1,.61,3.18,4.53,4.53,0,0,1-2.66,3.11,4.32,4.32,0,0,1,.61,3.36,4.39,4.39,0,0,1-2.83,3.06,4.64,4.64,0,0,1-.16,4.23A4.44,4.44,0,0,1,195.4,285a3,3,0,0,1-.61,3.58,2.16,2.16,0,0,1-2.76.07,3,3,0,0,1-1.17,2.93,1.79,1.79,0,0,1-2.23-.22,2.35,2.35,0,0,1-.85,1.8,2.43,2.43,0,0,1-3.15-.84,2.14,2.14,0,0,1-2.72-.09,3.28,3.28,0,0,1-.69-2.19,1.34,1.34,0,0,1-2.09.11,3.17,3.17,0,0,1-.34-3.06,1.86,1.86,0,0,1-2.1-1.38,5.09,5.09,0,0,1,.86-4.52c-2.19-1.23-2.59-4.15-2.06-6.37A9.3,9.3,0,0,1,179.15,269.33Z" transform="translate(-3.42 -2.31)"/><path class="cls-26" d="M181.55,280.6a17.84,17.84,0,0,0,2,2.31,14.67,14.67,0,0,0,1.09,1c.23.2.48.39.73.57a55.53,55.53,0,0,1,2.56-8.16c-.26-.3-.52-.61-.76-.93s-.61-.81-.88-1.23a21.09,21.09,0,0,1-1.52-2.73,19.68,19.68,0,0,1-1.11-3.11,16.64,16.64,0,0,1-.56-3.49,15.85,15.85,0,0,0,.67,3.41,18.56,18.56,0,0,0,1.19,3,23.38,23.38,0,0,0,1.59,2.62c.28.4.6.79.9,1.17s.46.53.69.78a56.48,56.48,0,0,1,3.46-7,20.48,20.48,0,0,1-.84-2.23,20.26,20.26,0,0,1-.61-2.58,19.13,19.13,0,0,1-.26-2.77,17.21,17.21,0,0,1,.14-2.93,17.39,17.39,0,0,0,0,2.88,19.31,19.31,0,0,0,1.07,5.18,18.71,18.71,0,0,0,.83,1.95,55.1,55.1,0,0,1,5.66-7.81,17.18,17.18,0,0,1-.23-4.21,38,38,0,0,1,.88-4.6,36.8,36.8,0,0,0-.76,4.57,16.32,16.32,0,0,0,.31,4,56,56,0,0,1,7.5-7.1,50.38,50.38,0,0,0-4.8,4.44,23.13,23.13,0,0,0,3,1.08c1.08.31,3.29.83,3.29.83s-2.24-.45-3.34-.72a24.43,24.43,0,0,1-3.18-1,55.14,55.14,0,0,0-6.14,7.73c.62.13,1.24.24,1.88.33s1.45.19,2.18.27c1.46.14,2.93.26,4.4.34-1.48,0-3-.05-4.46-.11-.75,0-1.49-.08-2.23-.14s-1.38-.14-2.07-.23a54.92,54.92,0,0,0-3.87,7.11,29.63,29.63,0,0,0,4.93.49c1.78.05,3.57.05,5.35,0-1.78.11-3.59.18-5.39.21a31.14,31.14,0,0,1-5.11-.25,55.22,55.22,0,0,0-2.76,7.77c.73,0,1.48,0,2.22-.11s1.78-.18,2.67-.31c1.77-.25,3.56-.55,5.31-.9-1.74.42-3.53.8-5.31,1.14-.89.17-1.8.31-2.69.44s-1.56.19-2.34.25a62.07,62.07,0,0,0-1.58,19.21l-1.18.1A65,65,0,0,1,185.25,285c-.28-.23-.57-.46-.83-.71s-.74-.68-1.08-1.06a17.39,17.39,0,0,1-2-2.44,18.55,18.55,0,0,1-1.59-2.89,16.15,16.15,0,0,1-1.11-3.36,15.44,15.44,0,0,0,1.2,3.27A18.46,18.46,0,0,0,181.55,280.6Z" transform="translate(-3.42 -2.31)"/><path class="cls-27" d="M148.38,280.29a6.52,6.52,0,0,1-2.73-5.15c0-1.76.78-3.13,1.95-3.41a6.72,6.72,0,0,1-2.26-5.89,3.75,3.75,0,0,1,2.17-3.28,9.29,9.29,0,0,1-.25-7.78,4.35,4.35,0,0,1,3.43-2.83,6.36,6.36,0,0,1,1.22-3.94c1.08-1.27,3.39-1.55,4.27-.13a3.34,3.34,0,0,1,3.6.69,4.79,4.79,0,0,1,1,3.79,3.93,3.93,0,0,1,4.13,3.13,5.07,5.07,0,0,1-1.38,5.07,4,4,0,0,1,2.66,1.85,4.54,4.54,0,0,1,.27,4.08,4.25,4.25,0,0,1,2.89,6.15,4.65,4.65,0,0,1,2.84,3.14,4.45,4.45,0,0,1-1.19,4.39,3,3,0,0,1,2.06,3,2.16,2.16,0,0,1-1.92,2,3,3,0,0,1,1.21,2.91,1.79,1.79,0,0,1-1.76,1.4,2.35,2.35,0,0,1,.66,1.89,2.46,2.46,0,0,1-2.85,1.6,2.13,2.13,0,0,1-2,1.83,3.16,3.16,0,0,1-2-1.09,1.34,1.34,0,0,1-1.43,1.54,3.18,3.18,0,0,1-2.38-2,1.86,1.86,0,0,1-2.46.48,5.1,5.1,0,0,1-2.54-3.84c-2.43.65-4.76-1.16-5.93-3.12A9.31,9.31,0,0,1,148.38,280.29Z" transform="translate(-3.42 -2.31)"/><path class="cls-28" d="M158,286.67a17.58,17.58,0,0,0,3,.26,14.34,14.34,0,0,0,1.48-.05l.93-.09a55.86,55.86,0,0,1-3.87-7.64c-.4,0-.8-.06-1.2-.13s-1-.15-1.49-.26a23.11,23.11,0,0,1-3-.9,18.38,18.38,0,0,1-3-1.45,16.11,16.11,0,0,1-2.84-2.1,16.55,16.55,0,0,0,2.85,2,17.84,17.84,0,0,0,3,1.31,20.5,20.5,0,0,0,3,.77c.48.09,1,.15,1.47.21s.69.05,1,.07a55,55,0,0,1-2.39-7.4,19.15,19.15,0,0,1-2.16-1,20.94,20.94,0,0,1-2.24-1.42,19.63,19.63,0,0,1-2.12-1.8,17.93,17.93,0,0,1-1.94-2.19,17.06,17.06,0,0,0,2,2.07,19.35,19.35,0,0,0,2.14,1.67,19.06,19.06,0,0,0,2.25,1.29,16.32,16.32,0,0,0,1.94.82,55.86,55.86,0,0,1-1.4-9.54,17.25,17.25,0,0,1-3.1-2.85,38.66,38.66,0,0,1-2.59-3.91,37,37,0,0,0,2.65,3.8,16.59,16.59,0,0,0,3,2.65,55.61,55.61,0,0,1,.4-10.32,50.92,50.92,0,0,0-.33,6.53,23.34,23.34,0,0,0,2.93-1.35c1-.53,2.93-1.7,2.93-1.7s-1.92,1.24-2.9,1.82a25,25,0,0,1-3,1.51,54.88,54.88,0,0,0,1,9.82c.54-.34,1.06-.69,1.58-1.07s1.17-.88,1.74-1.34q1.72-1.37,3.39-2.82c-1.06,1-2.16,2-3.27,3-.55.5-1.12,1-1.69,1.46s-1.08.87-1.64,1.28a55.63,55.63,0,0,0,2.19,7.79,29.05,29.05,0,0,0,3.88-3.09c1.31-1.2,2.59-2.46,3.84-3.72-1.21,1.32-2.44,2.63-3.71,3.91a30.75,30.75,0,0,1-3.83,3.39,55.18,55.18,0,0,0,3.45,7.49c.52-.52,1-1.06,1.51-1.63s1.15-1.37,1.69-2.08c1.1-1.42,2.17-2.88,3.18-4.37-1,1.53-2,3.05-3,4.53-.52.75-1.06,1.48-1.61,2.2s-1,1.22-1.51,1.81a62.23,62.23,0,0,0,12.29,14.85l-.77.9a65.32,65.32,0,0,1-10.46-12.4c-.36,0-.72.07-1.08.08s-1,0-1.51,0a18.36,18.36,0,0,1-3.1-.38,19.27,19.27,0,0,1-3.16-.95,17.42,17.42,0,0,1-3.14-1.63,15.44,15.44,0,0,0,3.14,1.49A18.45,18.45,0,0,0,158,286.67Z" transform="translate(-3.42 -2.31)"/><path class="cls-29" d="M190.15,271.76a8.67,8.67,0,0,0,.74-6.74c-.62-1.94-1.84-3.12-3-2.95a9,9,0,0,0,0-7.36c-1.18-2.69-3.06-2.71-3.18-2.71a12.09,12.09,0,0,0-2.51-8.62c-2-2.34-3.92-1.8-4.21-1.71a7.57,7.57,0,0,0-2.53-3.82,2.62,2.62,0,0,0-4,1.59,3.29,3.29,0,0,0-3.13,2.22,6.4,6.4,0,0,0,.42,4.54c-1.87.47-2.94,2.73-2.76,5.11a6,6,0,0,0,3.08,5,4.61,4.61,0,0,0-1.83,3.1,6,6,0,0,0,1.18,4.58,5,5,0,0,0-1.9,3.29,5.68,5.68,0,0,0,1.37,4.61,5.91,5.91,0,0,0-1.56,4.59,5.24,5.24,0,0,0,2.67,4.32,3.92,3.92,0,0,0-.88,4.11,2.1,2.1,0,0,0,2.5,1.39,4,4,0,0,0-.1,3.68,1.66,1.66,0,0,0,2.13.82,3.2,3.2,0,0,0,0,2.33,2.23,2.23,0,0,0,3.23.6,2,2,0,0,0,2.52,1.19,3.63,3.63,0,0,0,1.51-2c.31,1.05,1.07,1.53,1.87,1.1a3.78,3.78,0,0,0,1.55-3.09,1.67,1.67,0,0,0,2.47-.47,6.64,6.64,0,0,0,1-5.23c2.51-.28,4-3.21,4.45-5.82A12.54,12.54,0,0,0,190.15,271.76Z" transform="translate(-3.42 -2.31)"/><path class="cls-30" d="M183.42,282.63a17,17,0,0,1-2.75,1.52,14.33,14.33,0,0,1-1.4.54c-.3.11-.6.19-.9.27a76.36,76.36,0,0,0,.92-9.92c.36-.2.73-.4,1.08-.62s.88-.58,1.3-.9a23.81,23.81,0,0,0,2.49-2.19,22.14,22.14,0,0,0,2.26-2.79,19.92,19.92,0,0,0,1.91-3.46,18.33,18.33,0,0,1-2,3.32,19.87,19.87,0,0,1-2.3,2.63,20.31,20.31,0,0,1-2.5,2c-.42.3-.87.57-1.3.83s-.63.34-.94.5a76.42,76.42,0,0,0-.37-9.08,25,25,0,0,0,1.66-2,24.18,24.18,0,0,0,2.94-5.29,22.64,22.64,0,0,0,1.05-3.2,22,22,0,0,1-1.13,3.09,24.35,24.35,0,0,1-1.42,2.69A21.71,21.71,0,0,1,180.4,263c-.49.6-1,1.17-1.53,1.69a75.13,75.13,0,0,0-2.06-11,20.75,20.75,0,0,0,1.9-4.38,49.79,49.79,0,0,0,1-5.32,48.33,48.33,0,0,1-1.14,5.23,20.34,20.34,0,0,1-1.89,4.13,71.67,71.67,0,0,0-4-11.14,63.35,63.35,0,0,1,2.62,7,19.45,19.45,0,0,1-3.21-.29c-1.12-.18-3.35-.67-3.35-.67s2.23.59,3.35.82a22.11,22.11,0,0,0,3.31.45,73.36,73.36,0,0,1,2.52,11.16c-.62-.16-1.23-.33-1.85-.54s-1.41-.48-2.1-.75c-1.4-.54-2.79-1.11-4.17-1.72,1.36.69,2.74,1.36,4.13,2,.69.32,1.39.63,2.1.92s1.32.5,2,.73a76.11,76.11,0,0,1,.7,9.42,26.52,26.52,0,0,1-4.72-1.82c-1.65-.78-3.29-1.63-4.9-2.51,1.59.95,3.21,1.89,4.84,2.78a29.52,29.52,0,0,0,4.78,2.16,73.31,73.31,0,0,1-.58,9.6c-.67-.37-1.34-.75-2-1.18s-1.57-1-2.33-1.59c-1.53-1.11-3-2.28-4.51-3.49,1.43,1.28,2.91,2.53,4.41,3.74.75.6,1.52,1.19,2.29,1.75s1.35.94,2,1.37a80.12,80.12,0,0,1-6.26,21.24l1.05.67a85.19,85.19,0,0,0,5.41-17.81c.34-.11.7-.22,1-.36s.94-.37,1.41-.62a16.91,16.91,0,0,0,2.76-1.67,19.73,19.73,0,0,0,5-5.38,17.68,17.68,0,0,1-2.41,2.91A18.53,18.53,0,0,1,183.42,282.63Z" transform="translate(-3.42 -2.31)"/><polygon class="cls-8" points="189.49 292.8 189.04 301.09 188.34 314 187.18 335.21 158.46 335.21 157.31 314 156.6 301.09 156.15 292.8 189.49 292.8"/><polygon class="cls-4" points="189.04 301.09 188.95 302.75 188.85 304.47 188.34 314 157.31 314 156.78 304.47 156.69 302.75 156.6 301.09 189.04 301.09"/><polygon class="cls-8" points="188.95 302.75 188.85 304.47 156.78 304.47 156.69 302.75 188.95 302.75"/><polygon class="cls-31" points="465.84 34.72 464.56 22.94 429.78 5.72 460.43 25.46 465.84 34.72"/><polygon class="cls-32" points="429.78 5.72 451.07 36.32 460.43 25.46 429.78 5.72"/><polygon class="cls-33" points="465.84 34.72 457.72 28.6 460.43 25.46 465.84 34.72"/><polygon class="cls-32" points="429.78 5.72 473.18 15.93 464.56 22.94 429.78 5.72"/><polygon class="cls-34" points="358.39 222.24 407.81 222.24 407.81 219.43 360.05 219.43 337.06 177.42 334.6 178.77 358.39 222.24"/><path class="cls-35" d="M440.94,135.33a23.72,23.72,0,0,0,3.29,8.43c2.63,4.07,8.57,10,10.21,10.55.66.2,3-.86,5.58-2.21.85-.44,1.71-.91,2.55-1.37,3-1.64,5.56-3.23,5.56-3.23l3.93-5.53a45.35,45.35,0,0,0-8.79-19.74c-4.36-5.7-14.09-2.27-17.63.47S440.17,129.72,440.94,135.33Z" transform="translate(-3.42 -2.31)"/><path class="cls-36" d="M462.75,136c.12,3.58-2.25,4.94-2.72,5.54s2.7,3.92,4.12,2.43S462.75,136,462.75,136Z" transform="translate(-3.42 -2.31)"/><polygon class="cls-37" points="370.55 314.1 368.79 322.53 380.37 324.52 383.04 314.87 370.55 314.1"/><path class="cls-8" d="M350,328.73l-.75,4.23L386,339.51l.75-4.19s-32.55-6.18-36.1-6.5Z" transform="translate(-3.42 -2.31)"/><path class="cls-38" d="M365.62,323.76a.59.59,0,0,1-.1-.29l-2.28.88,2.6,3.59a.65.65,0,0,1-.15.9.7.7,0,0,1-.48.11.61.61,0,0,1-.4-.26L362.12,325a.29.29,0,0,1-.07-.18c-4.93,1.87-10.11,3.77-11.41,4,3.55.32,36.1,6.5,36.1,6.5l-1.16-9.71a.72.72,0,0,0-.86-.61c-8.62,1.69-11.61-2.06-12.43-3.52a.7.7,0,0,0-.87-.3l-1.58.61,2.56,3.56a.63.63,0,0,1-.14.88.62.62,0,0,1-.9-.15l-2.67-3.72a.14.14,0,0,1-.05-.1l-2,.77,2.68,3.71a.62.62,0,0,1-.14.88.6.6,0,0,1-.88-.14Z" transform="translate(-3.42 -2.31)"/><path class="cls-8" d="M364.81,328.69a.61.61,0,0,0,.4.26.7.7,0,0,0,.48-.11.65.65,0,0,0,.15-.9l-2.6-3.59-1.19.44a.29.29,0,0,0,.07.18Z" transform="translate(-3.42 -2.31)"/><path class="cls-8" d="M366.66,323l-1.14.44a.59.59,0,0,0,.1.29l2.7,3.72a.6.6,0,0,0,.88.14.62.62,0,0,0,.14-.88Z" transform="translate(-3.42 -2.31)"/><path class="cls-8" d="M371.36,326.08a.62.62,0,0,0,.9.15.63.63,0,0,0,.14-.88l-2.56-3.56-1.2.47a.14.14,0,0,0,.05.1Z" transform="translate(-3.42 -2.31)"/><path class="cls-39" d="M436.84,262.14c7.52.37,17.57.91,30.69,1.41,36.71,1.41,29.23-34.14,29.23-34.14L461.68,229s-52.16-.78-63.15,6.24-27,81.06-27,81.06L389,321.13s14.16-30.44,22.42-46.65c3.4-6.66,5.85-11.56,6.07-12.09C417.92,261.2,423.3,261.43,436.84,262.14Z" transform="translate(-3.42 -2.31)"/><path class="cls-40" d="M460.56,228.93l1.12,0,35.08.46s4.2,19.94-9.12,29.36c-13.25-3.21-21.15-16.65-28.1-28.72Z" transform="translate(-3.42 -2.31)"/><polygon class="cls-37" points="414.05 316.17 414.05 324.17 426.57 324.17 426.57 316.48 414.05 316.17"/><path class="cls-41" d="M417.48,262.39c-.22.53-2.67,5.43-6.07,12.09l2.91,43.93,3.16.07,12.51.31,3.46.08,3.39-56.73C423.3,261.43,417.92,261.2,417.48,262.39Z" transform="translate(-3.42 -2.31)"/><path class="cls-8" d="M396.25,334.34v4.29h37.3v-4.24s-33.13-.37-36.68-.07Z" transform="translate(-3.42 -2.31)"/><path class="cls-42" d="M410.74,326.71a.63.63,0,0,1-.16-.27l-2.09,1.26,3.19,3.09a.64.64,0,0,1-.45,1.1.64.64,0,0,1-.43-.18l-3.3-3.19a.3.3,0,0,1-.1-.17c-4.53,2.71-9.29,5.49-10.53,6,3.55-.3,36.68.07,36.68.07L430.7,325a.72.72,0,0,0-.95-.44c-8.19,3.17-11.79,0-12.85-1.28a.68.68,0,0,0-.91-.15l-1.45.88,3.15,3.05a.63.63,0,0,1,0,.89.63.63,0,0,1-.91,0l-3.29-3.18a.47.47,0,0,1-.06-.09l-1.81,1.09,3.29,3.19a.61.61,0,0,1,0,.89.6.6,0,0,1-.89,0Z" transform="translate(-3.42 -2.31)"/><path class="cls-8" d="M410.8,331.71a.64.64,0,0,0,.43.18.64.64,0,0,0,.45-1.1l-3.19-3.09c-.37.22-.72.44-1.09.65a.3.3,0,0,0,.1.17Z" transform="translate(-3.42 -2.31)"/><path class="cls-8" d="M411.63,325.8l-1.05.64a.63.63,0,0,0,.16.27l3.3,3.19a.63.63,0,0,0,.88-.91Z" transform="translate(-3.42 -2.31)"/><path class="cls-8" d="M416.79,328a.63.63,0,0,0,.91,0,.63.63,0,0,0,0-.89L414.54,324c-.34.2-.7.43-1.1.68a.47.47,0,0,0,.06.09Z" transform="translate(-3.42 -2.31)"/><path class="cls-36" d="M397.13,219.12h20.7s31.22-5,37.3-8.77c2.26-1.39,6.13-5.64,10.13-10.44l-14.1-11.74c-2.47,3.91-4.72,7.1-5.62,7.45-2.45.92-25.72,13.9-28.42,13.9S401.58,209.3,397.13,219.12Z" transform="translate(-3.42 -2.31)"/><path class="cls-43" d="M450.2,187.87l15.06,12c6.82-8.18,14-18,14-18l-21.35-12.88S452.39,182.08,450.2,187.87Z" transform="translate(-3.42 -2.31)"/><path class="cls-44" d="M463.08,158.3l15.44-6.07s18.41,2.14,19.68,46.49c.24,8.56.16,55.88-2.45,57.1-10.4,4.84-37.18-26.9-37.18-26.9-.54-1,.22-11.21,0-12.22a12.26,12.26,0,0,0,1.59-.73c2.74-1.62,7.85-8.4,12.87-15.72l-15.88-12.38c-.63,1-1.27,2-1.87,2.91C454.86,167.11,463.08,158.3,463.08,158.3Z" transform="translate(-3.42 -2.31)"/><path class="cls-45" d="M458.57,216.7a12.26,12.26,0,0,0,1.59-.73c2.74-1.62,7.85-8.4,12.87-15.72l-7.79-6.08L473,182.61l14.05-9.18v6.33s-6,16.36-13.17,29.2c-3.89,7-10.32,10.39-15.4,12.06A41.66,41.66,0,0,0,458.57,216.7Z" transform="translate(-3.42 -2.31)"/><path class="cls-46" d="M413.27,214.21s32.62-13.33,34.84-13.81c.7-.15,3.1-3.46,6.06-7.94.62-1,2.35-3.6,3-4.59L473,200.25c-5,7.32-10.13,14.1-12.87,15.72a12.26,12.26,0,0,1-1.59.73l0-.1a.29.29,0,0,1,0,.09c-9.48,3.55-43.62,5.19-44.28,5.41-1.23,1-4.11,1-6.7.3a9.46,9.46,0,0,1-3.22-1.49c-2.29-1.7-5.69.71-7.23,1.87-1,.75-3.33.73-4.1,0C394.78,212.92,413.27,214.21,413.27,214.21Z" transform="translate(-3.42 -2.31)"/><polygon class="cls-47" points="456.14 148.86 456.6 149.8 457.59 151.81 457.77 152.17 459.66 155.99 475.1 149.92 468.63 139.66 458.4 147.2 456.14 148.86"/><path class="cls-48" d="M487.08,179.76,471,204.48l-18.4-10.56s5-19.27,9.87-29.87c3-6.59,11.72-9.86,20.13-4.62C490,164.05,489.78,174.82,487.08,179.76Z" transform="translate(-3.42 -2.31)"/><path class="cls-49" d="M456.74,135.26c.59-2.68,3-5.15,5.25-1.56a7,7,0,0,1,.85,3c.39,3.74,4.74,5.39,8,5.63a6.27,6.27,0,0,0,1.56,0c.06,0-.7-4.39-.75-4.63a20.77,20.77,0,0,1-.64-4.4,37.33,37.33,0,0,0-.09-5,7.88,7.88,0,0,0-.57-2.68,3.16,3.16,0,0,0-1.94-1.83,3.85,3.85,0,0,0-.39-4.7,7,7,0,0,0-4.54-2.09,1.25,1.25,0,0,1-.78-.27,1.47,1.47,0,0,1-.24-.4,3.33,3.33,0,0,0-3.33-1.54,9.69,9.69,0,0,0-3.62,1.37,9.46,9.46,0,0,0-8.23-.25,13,13,0,0,0-6.08,5.76,5.17,5.17,0,0,0-6.54,5.53,3.51,3.51,0,0,0-2.77.79,2.39,2.39,0,0,0-.51,1.2,4.45,4.45,0,0,0,1.77,4.14,7.49,7.49,0,0,0,3.48,1.21c1.26.21,2.78.22,3.55-.8a1.2,1.2,0,0,1,.47-.5,1,1,0,0,1,.46,0,3.14,3.14,0,0,0,2.17-1,9.76,9.76,0,0,0,1.41-2,5.07,5.07,0,0,0,4.83-.42,18.89,18.89,0,0,0,.31,3.74c.3,1.92,3.29-.06,4.55,2.52s1.9,4,2.66,3.58S456.74,135.26,456.74,135.26Z" transform="translate(-3.42 -2.31)"/><path class="cls-36" d="M457.8,135.91c-.23-1,.37-2.33,1.22-2.39,1.08-.07,1.57,1.25,1.65,2.4s-.24,2.91-1.42,2.51c-.9-.31.1-1.39-.22-2S457.8,137,457.8,135.91Z" transform="translate(-3.42 -2.31)"/><path class="cls-36" d="M460,152.1l1,2a7.34,7.34,0,0,0,3.11-5.83A10,10,0,0,1,460,152.1Z" transform="translate(-3.42 -2.31)"/><polygon class="cls-50" points="460.1 157.98 459.48 152.73 473.63 145.98 476.18 150.19 460.1 157.98"/><path class="cls-51" d="M518.36,187.92c0,.12,0,.17,0,.21s0,.19,0,.27c0,.28-.11.77-.22,1.53-.84,5.59-3.83,24.78-6.62,42.59s-5.38,34.21-5.38,34.21l-5.54-.87s.19-1.21.52-3.34c1.17-7.44,4.1-26,6.73-42.87,1.31-8.41,2.56-16.37,3.47-22.27.46-2.95.83-5.38,1.09-7.09l.3-2c0-.23.06-.41.07-.52l0-.11h0l1.66.18-1.67-.14v0l1.66.18-1.67-.14,2.6.22h-2.6v-.22l2.6.22h3Z" transform="translate(-3.42 -2.31)"/><path class="cls-40" d="M458.54,272h6.8a0,0,0,0,1,0,0V336.8a1.63,1.63,0,0,1-1.63,1.63h-3.55a1.63,1.63,0,0,1-1.63-1.63V272A0,0,0,0,1,458.54,272Z"/><path class="cls-40" d="M458.54,322.11h6.8a0,0,0,0,1,0,0V336.8a1.63,1.63,0,0,1-1.63,1.63h-3.55a1.63,1.63,0,0,1-1.63-1.63V322.11A0,0,0,0,1,458.54,322.11Z"/><path class="cls-18" d="M443.25,272.94h37.38a0,0,0,0,1,0,0v1.4a4.28,4.28,0,0,1-4.28,4.28H447.53a4.28,4.28,0,0,1-4.28-4.28v-1.4A0,0,0,0,1,443.25,272.94Z"/><rect class="cls-24" x="420.52" y="259.87" width="82.84" height="13.24" rx="4.99"/><path class="cls-40" d="M500.64,336.75a4,4,0,1,1-4-4A4,4,0,0,1,500.64,336.75Z" transform="translate(-3.42 -2.31)"/><path class="cls-40" d="M438.05,336.75a4,4,0,1,1-4-4A4,4,0,0,1,438.05,336.75Z" transform="translate(-3.42 -2.31)"/><rect class="cls-18" x="455.1" y="317.05" width="13.68" height="11.95"/><path class="cls-51" d="M430.91,326.19H493a4.24,4.24,0,0,1,4.24,4.24v1.38a0,0,0,0,1,0,0H426.67a0,0,0,0,1,0,0v-1.38A4.24,4.24,0,0,1,430.91,326.19Z"/><path class="cls-24" d="M520,192.54l-3,22.2a5.78,5.78,0,1,1-11.46-1.54l3-22.2A5.78,5.78,0,1,1,520,192.54" transform="translate(-3.42 -2.31)"/><path class="cls-52" d="M108,108.75c1.41,3.93.92,11.8.92,11.8-2.61-2.77-10-9.93-12.78-12.6s-2.3-5-.64-5.5c-.19.62-.46,2.52,2.7,4.43,4.92,2.94,8.94,1.78,8.94,1.78l.46-.8c.09.15.15.34.25.52A1.92,1.92,0,0,0,108,108.75Z" transform="translate(-3.42 -2.31)"/><path class="cls-53" d="M114.21,169.36s2.27.28,5.52.71l-2.39,7.65-19-2.86h0a16.36,16.36,0,0,1-2.89-3.07h0l.7-.06Z" transform="translate(-3.42 -2.31)"/><path class="cls-54" d="M153.87,166.29c0,.25.06.52.09.8,0,0-4.24.52-8.67,1l3.17-9.67c2.67.18,4.91.18,6.33.18A15.83,15.83,0,0,0,153.87,166.29Z" transform="translate(-3.42 -2.31)"/><path class="cls-55" d="M91.81,186.9c-16.93-5.83-21.54-29.24-23-45.16-1.57-16.16,4.3-31.61,13.55-31.89h.43c11.46.28,11,15.64,9.46,30.7-1.14,11.15-2.67,23.22,3.22,31.24a16.36,16.36,0,0,0,2.89,3.07h0a18.38,18.38,0,0,0,3.32,2.24l15.67,2.8,4.91-1a7.09,7.09,0,0,1,.59,3.81,6.86,6.86,0,0,1-.59,2.12s-10.56,7.4-28.81,2.55A14.12,14.12,0,0,1,91.81,186.9Z" transform="translate(-3.42 -2.31)"/><path class="cls-56" d="M112.61,121.31A114.12,114.12,0,0,0,108,108.75a23.53,23.53,0,0,1,1,6.28,2.24,2.24,0,0,1-3.81,1.69c-3.17-3.16-7.11-7-9-8.77-2.86-2.67-2.3-5-.64-5.5a1.78,1.78,0,0,0,.09-.21l.34-.65a28.88,28.88,0,0,0-13.86,2.86c-6.82,3-14.47,8.63-21.47,18A170,170,0,0,0,31.5,182.76c-3.76,14.54-3.68,23.93-3.68,23.93s1.78.24,4.67.58c7.28.8,21.62,2.18,31.82,1.6.93-.06,1.88-.12,2.8-.25a102.65,102.65,0,0,0,23.56-5.86v0c1.45-.55,2.28-.89,2.28-.89S91.1,193,91.78,187.09a.42.42,0,0,1,0-.19c-16.93-5.83-21.54-29.24-23-45.16-1.57-16.16,4.3-31.61,13.55-31.89h.43c11.46.28,11,15.64,9.46,30.7-1.14,11.15-2.67,23.22,3.22,31.24h0l.7-.06c2.64-6.12,6.15-11.86,9.43-17.67.22-.37.4-.73.62-1.1C111.78,142.73,115,129.3,112.61,121.31Z" transform="translate(-3.42 -2.31)"/><path class="cls-57" d="M91.78,187.09a.42.42,0,0,1,0-.19c-16.93-5.83-21.54-29.24-23-45.16a52.36,52.36,0,0,1,.6-14.59,48.73,48.73,0,0,0-2.15,20.4c1.51,15.91,6.12,39.32,23,45.16a14.58,14.58,0,0,0,1.5.48A33.5,33.5,0,0,1,91.78,187.09Z" transform="translate(-3.42 -2.31)"/><path class="cls-58" d="M169.78,160.18c3.47,1,12.72,2.58,11.74,4.36s-10.17.58-10.17.58-2.34,4.24-4,4.67a6.49,6.49,0,0,1-3.78-.55s-1.44,2-3.47,1.44-3.35-4.11-4.91-4.45a4,4,0,0,0-1.29.06,15.83,15.83,0,0,1,.92-7.65h.92C159.06,158.64,166.34,159.19,169.78,160.18Z" transform="translate(-3.42 -2.31)"/><path class="cls-51" d="M148.46,158.46l-3.17,9.67-1.65,5-26.3,4.58,2.39-7.65,1-3.17,4.88-15.54,2.22-7c.33,0,25.86-1.87,25.86-1.87Z" transform="translate(-3.42 -2.31)"/><polygon class="cls-59" points="140.21 170.84 140.21 172.56 135.79 173.38 118.83 176.64 113.92 177.59 113.92 175.41 140.21 170.84"/><path class="cls-60" d="M139.21,175.69a1.48,1.48,0,0,1-.4,1.69,13.68,13.68,0,0,1-5.86,3.53c-2.92.83-7.53,0-7.53,0l-2.58,1.85a7.09,7.09,0,0,0-.59-3.81Z" transform="translate(-3.42 -2.31)"/><path class="cls-61" d="M125.63,151.36l-4.88,15.54c-5.16-2.24-10.35-6.42-14.53-13.94,5.56-10.23,8.81-23.66,6.39-31.65A114.12,114.12,0,0,0,108,108.75a1.92,1.92,0,0,1-.15-.37c-.1-.18-.16-.37-.25-.52l.31-.59a28.22,28.22,0,0,1,9.18,12.29C120.13,127.52,117,144,125.63,151.36Z" transform="translate(-3.42 -2.31)"/><path class="cls-51" d="M117.34,177.72v2.18l-15.67-2.8a18.38,18.38,0,0,1-3.32-2.24Z" transform="translate(-3.42 -2.31)"/><polygon class="cls-62" points="89.51 316.86 89.51 324.86 76.99 324.86 76.99 317.17 89.51 316.86"/><path class="cls-8" d="M113.71,335v4.29H77.38v-4.25s32.61-.37,36.15-.06Z" transform="translate(-3.42 -2.31)"/><path class="cls-63" d="M99.67,327.39a.46.46,0,0,0,.15-.26c.68.4,1.38.82,2.09,1.26l-3.18,3.08a.64.64,0,0,0,.44,1.1.64.64,0,0,0,.44-.18l3.3-3.19a.31.31,0,0,0,.1-.16c2.71,1.62,7,2.91,9,4.08,1.38.78,1.47,1.4,1.47,1.89-3.54-.31-35.93.06-35.93.06a24.24,24.24,0,0,1,.4-3.75c.42-1.4,1.7-5.61,1.7-5.61a.72.72,0,0,1,1-.45c8.19,3.18,11.8,0,12.85-1.28a.71.71,0,0,1,.91-.15l1.46.89-3.15,3a.63.63,0,0,0,0,.9.67.67,0,0,0,.46.2.62.62,0,0,0,.44-.19l3.29-3.19a.31.31,0,0,0,.07-.09l1.81,1.1-3.29,3.19a.63.63,0,0,0,.44,1.09.59.59,0,0,0,.44-.19Z" transform="translate(-3.42 -2.31)"/><path class="cls-8" d="M99.61,332.39a.64.64,0,0,1-.44.18.64.64,0,0,1-.44-1.1l3.18-3.08,1.1.65a.31.31,0,0,1-.1.16Z" transform="translate(-3.42 -2.31)"/><path class="cls-8" d="M98.78,326.49l1,.64a.46.46,0,0,1-.15.26l-3.3,3.19a.59.59,0,0,1-.44.19.63.63,0,0,1-.44-1.09Z" transform="translate(-3.42 -2.31)"/><path class="cls-8" d="M93.61,328.67a.62.62,0,0,1-.44.19.67.67,0,0,1-.46-.2.63.63,0,0,1,0-.9l3.15-3,1.1.67a.31.31,0,0,1-.07.09Z" transform="translate(-3.42 -2.31)"/><polygon class="cls-64" points="37.95 316.54 36.27 324.37 24.03 321.74 25.64 314.22 37.95 316.54"/><path class="cls-8" d="M58.37,338.71l-.9,4.2L22,335.3l.89-4.15s32,6.46,35.36,7.5Z" transform="translate(-3.42 -2.31)"/><path class="cls-63" d="M46.24,328.31a.55.55,0,0,0,.2-.23l1.78,1.67-3.76,2.35a.63.63,0,0,0,.21,1.16.58.58,0,0,0,.46-.08l3.9-2.42a.37.37,0,0,0,.13-.15c2.32,2.16,6.22,4.32,8,5.89,1.19,1.05,1.14,1.67,1,2.15-3.4-1-35.15-7.46-35.15-7.46a25,25,0,0,1,1.17-3.58l2.85-5.13a.72.72,0,0,1,1-.24c7.34,4.82,11.53,2.48,12.83,1.44a.71.71,0,0,1,.93,0l1.23,1.17-3.72,2.32a.62.62,0,0,0-.19.87.67.67,0,0,0,.4.3.65.65,0,0,0,.48-.1l3.88-2.42a.2.2,0,0,0,.08-.08l1.54,1.45-3.88,2.43a.61.61,0,0,0-.2.87.63.63,0,0,0,.41.3.6.6,0,0,0,.46-.1Z" transform="translate(-3.42 -2.31)"/><path class="cls-8" d="M45.13,333.18a.58.58,0,0,1-.46.08.63.63,0,0,1-.21-1.16l3.76-2.35.94.86a.37.37,0,0,1-.13.15Z" transform="translate(-3.42 -2.31)"/><path class="cls-8" d="M45.55,327.23l.89.85a.55.55,0,0,1-.2.23l-3.9,2.42a.6.6,0,0,1-.46.1.63.63,0,0,1-.41-.3.61.61,0,0,1,.2-.87Z" transform="translate(-3.42 -2.31)"/><path class="cls-8" d="M40.05,328.28a.65.65,0,0,1-.48.1.67.67,0,0,1-.4-.3.62.62,0,0,1,.19-.87l3.72-2.32.93.89a.2.2,0,0,1-.08.08Z" transform="translate(-3.42 -2.31)"/><path class="cls-52" d="M78.92,322.39s2.66-36.72.08-54a131.71,131.71,0,0,0-10.51-34.65c-.15-14.19-1.38-25.16-1.38-25.16a102.65,102.65,0,0,0,23.56-5.86c.46,1,9.53,21,11.71,50.62,2.21,30.36-7.46,69-7.46,69S79.32,322.48,78.92,322.39Z" transform="translate(-3.42 -2.31)"/><path class="cls-65" d="M98.82,96.26,104,94.1c-.38-2.45.59-5.21,2.94-6.22,3.13-1.34,3.54,2.72,3.54,2.72l-1.23,3.65s.67.82,1.23.53,2.31-3.92,3.09-4.59,3.13-.7,4.62-2.57,1.9-3.65,3.09-3.8,4.47,1.49,7.19,2.31a7.78,7.78,0,0,0,2.31.34c-.08.71-1.05,8.53-3.77,13.93-2.83,5.7-8.3,8.64-9.16,8.72s-7.61-1.85-7.61-1.85l-2.09,3.25s-3.78,1.54-9.74-2c-3.84-2.31-3.5-4.62-3.28-5.36a1.4,1.4,0,0,0,.11-.26l.41-.78Z" transform="translate(-3.42 -2.31)"/><path class="cls-66" d="M130.78,86.47a7.78,7.78,0,0,1-2.31-.34c-2.72-.82-6-2.45-7.19-2.31s-1.6,1.9-3.09,3.8-3.8,1.9-4.62,2.57-2.57,4.32-3.09,4.59-1.23-.53-1.23-.53l1.23-3.65s-.41-4.06-3.54-2.72c-2.35,1-3.32,3.77-2.94,6.22l-5.18,2.16s.71-9.72,1-12.85a11.94,11.94,0,0,1,5.34-8.94,5,5,0,0,1,2.81-.85,1.39,1.39,0,0,1,.63-.93,10.56,10.56,0,0,1,5.2-2,22.09,22.09,0,0,1,9.18.81c3.59,1.12,7.32,3.35,9.3,6.64.81,1.35,1.35,2.84,2.17,4.19a2.31,2.31,0,0,0,1.71,1.34A6.2,6.2,0,0,1,130.78,86.47Z" transform="translate(-3.42 -2.31)"/><path class="cls-13" d="M68.49,233.78c-.15-14.19-1.38-25.16-1.38-25.16-.92.13-1.87.19-2.8.25-10.2.58-24.54-.8-31.82-1.6-1.6,16.59,7.15,37.94,6.26,61.11-.68,17.82-8.18,41.54-12.09,52.29l14.87,3C48.85,311.9,64.3,282.06,67,262.75A198.06,198.06,0,0,0,68.49,233.78Z" transform="translate(-3.42 -2.31)"/><polygon class="cls-59" points="114.23 174.41 115.94 168.93 98.88 171.87 114.23 174.41"/><path class="cls-57" d="M104,94.1c.43,2.73,2.15,2.78,2.91,2.78,0,0-.52,2.73-2.91,2.27S104,94.1,104,94.1Z" transform="translate(-3.42 -2.31)"/><path class="cls-57" d="M108.91,91.26a1.44,1.44,0,0,0-.26-1,1.14,1.14,0,0,0-1.29-.24,3.57,3.57,0,0,0-1.74,2.55,1.65,1.65,0,0,0,1.25,2.15.93.93,0,0,0,1-.78c0-.37-.28-.7-.28-1.07a.75.75,0,0,1,.36-.63c.22-.12.55,0,.71-.07S108.9,91.49,108.91,91.26Z" transform="translate(-3.42 -2.31)"/><path class="cls-57" d="M110.24,107.27c-1.64-.49-3.13-1-3.13-1l2.34,2.2Z" transform="translate(-3.42 -2.31)"/><polygon class="cls-53" points="113.92 175.41 113.19 175.3 123.8 141.77 124.42 142.02 113.92 175.41"/><polygon class="cls-53" points="123.8 141.77 149.72 139.87 150.29 140.14 124.42 142.02 123.8 141.77"/><path class="cls-24" d="M343.32,218a3.2,3.2,0,0,0,3.19-3.18v-6.59h-3.1v-1.94H347a1.47,1.47,0,0,1,1.47,1.47v7.06a5.14,5.14,0,0,1-5.13,5.13h-.39V218Z" transform="translate(-3.42 -2.31)"/><path class="cls-24" d="M332,204.17h7.75a4.35,4.35,0,0,1,4.35,4.35v16a0,0,0,0,1,0,0H327.6a0,0,0,0,1,0,0v-16A4.35,4.35,0,0,1,332,204.17Z" transform="translate(668.24 426.41) rotate(180)"/><path class="cls-67" d="M145.69,218a3.19,3.19,0,0,1-3.18-3.18v-6.59h3.1v-1.94H142a1.47,1.47,0,0,0-1.48,1.47v7.06a5.14,5.14,0,0,0,5.13,5.13h.39V218Z" transform="translate(-3.42 -2.31)"/><path class="cls-68" d="M141.53,201.86H158a0,0,0,0,1,0,0v16a4.35,4.35,0,0,1-4.35,4.35h-7.75a4.35,4.35,0,0,1-4.35-4.35v-16A0,0,0,0,1,141.53,201.86Z"/><rect class="cls-51" x="113.71" y="224.98" width="18.67" height="113.45"/><rect class="cls-51" x="379.17" y="224.98" width="18.67" height="113.45"/><rect class="cls-59" x="113.71" y="224.98" width="18.67" height="12.52"/><rect class="cls-59" x="379.17" y="224.98" width="18.67" height="12.52"/><rect class="cls-8" x="101.55" y="222.24" width="308.41" height="9.62" rx="4.24"/><path class="cls-7" d="M221.64,213.71a4.91,4.91,0,1,1,0,9.82H182.07v-9.82Z" transform="translate(-3.42 -2.31)"/><rect class="cls-69" x="178.65" y="218.32" width="42.2" height="0.76"/><rect class="cls-69" x="178.65" y="216.73" width="43.03" height="0.76"/><rect class="cls-69" x="178.65" y="215.14" width="43.03" height="0.76"/><rect class="cls-69" x="178.65" y="213.55" width="42.2" height="0.76"/><path class="cls-12" d="M181.14,212.7h40.5a5.92,5.92,0,1,1,0,11.84h-40.5v-2h40.5a3.9,3.9,0,0,0,0-7.8h-40.5Z" transform="translate(-3.42 -2.31)"/><path class="cls-7" d="M189.81,211.85a4.12,4.12,0,0,1,0-8.23H223v8.23Z" transform="translate(-3.42 -2.31)"/><rect class="cls-69" x="184.19" y="203.11" width="35.38" height="0.64"/><rect class="cls-69" x="183.49" y="204.45" width="36.07" height="0.64"/><rect class="cls-69" x="183.49" y="205.78" width="36.07" height="0.64"/><rect class="cls-69" x="184.18" y="207.11" width="35.38" height="0.64"/><path class="cls-16" d="M223.77,212.7h-34a5,5,0,0,1,0-9.93h34v1.7h-34a3.27,3.27,0,0,0,0,6.54h34Z" transform="translate(-3.42 -2.31)"/><path class="cls-7" d="M186.1,201.92a4.12,4.12,0,1,1,0-8.23h33.17v8.23Z" transform="translate(-3.42 -2.31)"/><rect class="cls-69" x="180.47" y="193.18" width="35.38" height="0.64"/><rect class="cls-69" x="179.78" y="194.52" width="36.07" height="0.64"/><rect class="cls-69" x="179.78" y="195.85" width="36.07" height="0.64"/><rect class="cls-69" x="180.47" y="197.18" width="35.38" height="0.64"/><path class="cls-14" d="M220.06,202.77h-34a5,5,0,0,1,0-9.93h34v1.7h-34a3.27,3.27,0,1,0,0,6.54h34Z" transform="translate(-3.42 -2.31)"/><polygon class="cls-37" points="317.13 216.32 317.13 222.24 320.77 220.31 320.77 218.25 317.13 216.32"/><polygon class="cls-16" points="320.77 218.25 320.77 220.31 322.71 219.28 320.77 218.25"/><rect class="cls-70" x="274.5" y="216.32" width="42.63" height="1.97"/><rect class="cls-24" x="274.5" y="218.29" width="42.63" height="1.97"/><rect class="cls-71" x="274.5" y="220.26" width="42.63" height="1.97"/><path class="cls-12" d="M269.12,216.32h5.38a0,0,0,0,1,0,0v5.92a0,0,0,0,1,0,0h-5.38a1.9,1.9,0,0,1-1.9-1.9v-2.12A1.9,1.9,0,0,1,269.12,216.32Z"/><rect class="cls-14" x="271.47" y="216.32" width="3.02" height="5.92"/><rect class="cls-72" x="272.53" y="216.32" width="0.91" height="5.92"/><path class="cls-14" d="M82.77,74.35a15.65,15.65,0,0,1,4.37-4.91A20.42,20.42,0,0,0,75,32.6a22.71,22.71,0,0,0-2.32.13A20.41,20.41,0,0,0,63.1,69.57a14,14,0,0,1,4.21,4.78" transform="translate(-3.42 -2.31)"/><path class="cls-73" d="M74.3,74.8a.44.44,0,0,1-.43-.32l-4.42-15a.45.45,0,0,1,.21-.52.46.46,0,0,1,.56.1l1.37,1.55L73,59.07a.46.46,0,0,1,.68,0L75,60.62l1.38-1.55a.45.45,0,0,1,.34-.15h0a.41.41,0,0,1,.33.15l1.39,1.55,1.38-1.55a.45.45,0,0,1,.77.42l-4.41,15a.45.45,0,0,1-.86-.26l3.84-13.06-.39.43a.45.45,0,0,1-.67,0L76.74,60l-1.38,1.55a.45.45,0,0,1-.67,0L73.31,60l-1.38,1.55a.45.45,0,0,1-.67,0l-.38-.42,3.85,13a.45.45,0,0,1-.3.56A.32.32,0,0,1,74.3,74.8Z" transform="translate(-3.42 -2.31)"/><rect class="cls-51" x="62.71" y="73.99" width="17.7" height="9.05"/><path class="cls-74" d="M66.43,84.8a3.13,3.13,0,0,1-.86-.12,2.71,2.71,0,0,0,2.72,2.68h1.44v.53a2,2,0,0,0,2,2h6.5a2,2,0,0,0,2.06-2v-.53h1.44a2.73,2.73,0,0,0,2.72-2.68,3.15,3.15,0,0,1-.87.12Z" transform="translate(-3.42 -2.31)"/><rect class="cls-74" x="62.14" y="77.45" width="18.93" height="2.71"/><rect class="cls-74" x="62.14" y="72.05" width="18.93" height="2.71"/><path class="cls-75" d="M471.61,29.32l1.87.71" transform="translate(-3.42 -2.31)"/><path class="cls-76" d="M477.11,31.51a125.22,125.22,0,0,1,28.23,16.68c3.27,2.56,6.47,5.37,8.45,9s2.53,8.31.45,11.89c-2.4,4.12-7.64,5.81-12.39,5.56-5.24-.27-11.07-3.46-11.45-8.69a4.46,4.46,0,0,1,.7-2.95,5.12,5.12,0,0,1,2-1.48c5.14-2.51,11.53-1.71,16.36,1.35a24.9,24.9,0,0,1,9.92,13.57c3.6,11.23.21,24.32-8.09,32.64" transform="translate(-3.42 -2.31)"/><path class="cls-75" d="M509.84,110.44c-.5.44-1,.86-1.54,1.27" transform="translate(-3.42 -2.31)"/><path class="cls-4" d="M232.7,287.47l5.17,50h38.91l5.17-50Zm9,38.75h-3.6l-.42-4.34h3.68Zm-.44-5.56h-3.7l-.44-4.59h3.78Zm-.46-5.87H237l-.46-4.87h3.89Zm-.49-6.23h-3.92l-.49-5.15h4Zm-.51-6.6h-4l-.53-5.48h4.14Zm-.55-7h-4.17l-.56-5.83h4.27Zm7.43,31.28h-3.6l-.31-4.34h3.68Zm-.3-5.56h-3.7l-.33-4.59h3.79Zm-.31-5.87h-3.81l-.35-4.87h3.9Zm-.33-6.23h-3.92l-.37-5.15h4Zm-.36-6.6h-4l-.4-5.48h4.14Zm-.37-7h-4.17l-.41-5.83h4.27Zm6.65,31.28h-3.6l-.2-4.34h3.68Zm-.16-5.56h-3.7l-.21-4.59h3.78Zm-.16-5.87h-3.81l-.23-4.87h3.9Zm-.18-6.23h-3.92l-.24-5.15h4ZM251,302h-4l-.25-5.48h4.14Zm-.2-7H246.6l-.27-5.83h4.27Zm5.87,31.28H253l-.09-4.34h3.68Zm0-5.56h-3.71l-.1-4.59h3.79Zm0-5.87h-3.81l-.11-4.87h3.9Zm0-6.23h-3.92l-.11-5.15h4Zm0-6.6h-4l-.12-5.48h4.14Zm0-7h-4.17l-.12-5.83h4.27Zm5.09,31.28H258v-4.34h3.68Zm.12-5.56H258l0-4.59h3.79Zm.12-5.87h-3.8v-4.87H262Zm.14-6.23h-3.92v-5.15h4Zm.14-6.6h-4l0-5.48h4.14Zm.15-7h-4.17l0-5.83h4.28Zm4.31,31.28H263l.12-4.34h3.68Zm.26-5.56h-3.7l.13-4.59h3.78Zm.27-5.87h-3.81l.14-4.87h3.9Zm.29-6.23H263.5l.15-5.15h4Zm.31-6.6h-4l.15-5.48H268Zm.32-7h-4.16l.16-5.83h4.27Zm3.53,31.28H268l.23-4.34h3.68Zm.4-5.56h-3.7l.24-4.59h3.79Zm.42-5.87h-3.81l.26-4.87h3.9Zm.44-6.23h-3.92l.28-5.15h4Zm.47-6.6h-4l.29-5.48h4.14Zm.51-7h-4.17l.31-5.83h4.27Zm2.75,31.28H273l.34-4.34H277Zm.53-5.56h-3.7l.36-4.59h3.78Zm.57-5.87h-3.81l.38-4.87h3.9Zm.6-6.23h-3.92l.4-5.15h4Zm.63-6.6h-4l.43-5.48h4.14Zm.68-7h-4.17l.46-5.83h4.27Z" transform="translate(-3.42 -2.31)"/><line class="cls-75" x1="44.6" y1="57.3" x2="29.75" y2="60.79"/><line class="cls-75" x1="47.02" y1="61.85" x2="40.51" y2="68.21"/><line class="cls-75" x1="44.8" y1="51.65" x2="34.8" y2="50.64"/></g></g></svg>