<svg xmlns="http://www.w3.org/2000/svg" xmlns:xlink="http://www.w3.org/1999/xlink" viewBox="0 0 362.28 282.43"><defs><style>.cls-1{fill:none;}.cls-2{isolation:isolate;}.cls-3{fill:#0cf;}.cls-4{opacity:0.2;mix-blend-mode:lighten;}.cls-13,.cls-5{fill:#fff;}.cls-6{clip-path:url(#clip-path);}.cls-7{fill:#00004d;}.cls-8{fill:#0000c3;}.cls-9{fill:#be7856;}.cls-10{fill:#ffb41a;}.cls-11{fill:#457b9d;}.cls-12{fill:#00b6e4;}.cls-13{opacity:0.3;}.cls-14{fill:#ffba92;}.cls-15{fill:#e6e6ff;}.cls-16{fill:#fbfffc;}</style><clipPath id="clip-path" transform="translate(-0.44 -0.49)"><rect class="cls-1" x="125.87" y="35.98" width="170.85" height="113.59"/></clipPath></defs><g class="cls-2"><g id="OBJECTS"><rect class="cls-3" x="125.42" y="35.49" width="170.85" height="113.59"/><g class="cls-4"><polygon class="cls-5" points="218.13 35.49 125.42 128.2 125.42 149.08 148.62 149.08 262.21 35.49 218.13 35.49"/><polygon class="cls-5" points="296.27 63.77 296.27 35.49 280.47 35.49 166.88 149.08 210.96 149.08 296.27 63.77"/></g><g class="cls-6"><path class="cls-7" d="M234.69,74.22c0,2.64-3.22,4.89-3.73,7.3-.54,2.6,1.46,6,.43,8.2-1.12,2.43-5,3-6.57,4.86-1.75,2-1.93,6-4.1,7.09s-5.46-1-8.05-1-5.77,2.12-8,.91-2.32-5.07-4.06-7.11c-1.58-1.86-5.44-2.46-6.54-4.9-1-2.23,1-5.59.47-8.19-.49-2.42-3.69-4.69-3.68-7.33s3.22-4.88,3.72-7.3c.55-2.6-1.45-6-.42-8.2,1.12-2.43,5-3,6.57-4.86,1.75-2,1.93-5.94,4.1-7.08s5.45,1,8.05,1,5.77-2.12,8-.91,2.32,5.08,4.06,7.12c1.58,1.85,5.44,2.46,6.54,4.89,1,2.24-1,5.59-.47,8.19C231.5,69.32,234.7,71.58,234.69,74.22Z" transform="translate(-0.44 -0.49)"/><path class="cls-8" d="M210.94,158.17l1.79-8.81,1.78,8.81h22.67c-.78-13.57-2.2-25.12-4.67-30.51-.26-.56-39.31-.56-39.57,0-2.43,5.39-3.84,16.94-4.61,30.51Z" transform="translate(-0.44 -0.49)"/><path class="cls-5" d="M233.61,139a.39.39,0,0,1-.26-.09c-1.54-1.29-2.73-2.33-3.93-3.36s-2.38-2.08-3.92-3.36a.41.41,0,0,1-.05-.57.39.39,0,0,1,.57,0c1.54,1.28,2.74,2.32,3.94,3.36s2.38,2.07,3.91,3.35a.41.41,0,0,1,0,.57A.4.4,0,0,1,233.61,139Z" transform="translate(-0.44 -0.49)"/><path class="cls-5" d="M191.85,139a.39.39,0,0,1-.31-.15.4.4,0,0,1,.05-.57l8-6.71a.4.4,0,0,1,.57,0,.41.41,0,0,1-.05.57l-8,6.72A.43.43,0,0,1,191.85,139Z" transform="translate(-0.44 -0.49)"/><path class="cls-5" d="M212.73,150.93a.4.4,0,0,1-.41-.4V138a.41.41,0,1,1,.81,0v12.53A.4.4,0,0,1,212.73,150.93Z" transform="translate(-0.44 -0.49)"/><path class="cls-5" d="M232.81,128.18c.17-3.22.85-17.89.85-21.39,0-22-9.36-26.71-20.91-26.71s-20.9,4.69-20.9,26.71c0,3.5.68,18.17.84,21.39h0a54.61,54.61,0,0,0,40.12,0Z" transform="translate(-0.44 -0.49)"/><path class="cls-7" d="M212.71,129.54A55.09,55.09,0,0,1,196.18,127a.4.4,0,0,1-.26-.51.39.39,0,0,1,.5-.26,54.07,54.07,0,0,0,32.58,0,.39.39,0,0,1,.5.26.4.4,0,0,1-.26.51A55.09,55.09,0,0,1,212.71,129.54Z" transform="translate(-0.44 -0.49)"/><path class="cls-7" d="M212.75,113.29a29,29,0,0,1-11.26-2.16.41.41,0,0,1-.22-.53.42.42,0,0,1,.54-.22,29.7,29.7,0,0,0,21.89,0,.41.41,0,0,1,.53.22.4.4,0,0,1-.21.53A29,29,0,0,1,212.75,113.29Z" transform="translate(-0.44 -0.49)"/><path class="cls-9" d="M158.33,85.87l4.09-1.43L179.3,103s2.42,7.74-1.32,9.08C172.17,114.17,158.33,85.87,158.33,85.87Z" transform="translate(-0.44 -0.49)"/><path class="cls-7" d="M165.3,87.62l-4.07,3.87c1.32,2.43,3,5.39,4.76,8.3.78,1.06,4.39-6.58,4.39-6.58Z" transform="translate(-0.44 -0.49)"/><path class="cls-5" d="M205.93,80.91c-10.62,1.26-27.24,20.31-27.24,20.31L167.45,88.6,161,93.06s11.12,19.82,15.8,19.84c7,.19,30.79-18.14,30.79-18.14S214.52,79.88,205.93,80.91Z" transform="translate(-0.44 -0.49)"/><path class="cls-9" d="M151.12,82.12C151,83.24,161.19,89,162.35,87.9,167.38,83.38,151.75,75.88,151.12,82.12Z" transform="translate(-0.44 -0.49)"/><path class="cls-9" d="M159.25,82.75a24,24,0,0,1-.7-2.4.62.62,0,0,1,1-.63C161,80.9,163,83.25,163,85.88" transform="translate(-0.44 -0.49)"/><path class="cls-7" d="M156.44,81.28l-.15,0a9.26,9.26,0,0,0-4.43-.38.41.41,0,0,1-.48-.32.4.4,0,0,1,.32-.47,10.12,10.12,0,0,1,4.88.4.41.41,0,0,1,.24.53A.41.41,0,0,1,156.44,81.28Z" transform="translate(-0.44 -0.49)"/><path class="cls-7" d="M155.86,82.6l-.14,0a7.3,7.3,0,0,0-4.18-.37.42.42,0,0,1-.5-.3.4.4,0,0,1,.3-.49,8.25,8.25,0,0,1,4.66.39.41.41,0,0,1,.24.53A.41.41,0,0,1,155.86,82.6Z" transform="translate(-0.44 -0.49)"/><path class="cls-7" d="M155.19,84.09a.37.37,0,0,1-.18,0,8.69,8.69,0,0,0-2.77-.73.41.41,0,0,1,.08-.81,9.45,9.45,0,0,1,3.05.81.41.41,0,0,1,.18.55A.4.4,0,0,1,155.19,84.09Z" transform="translate(-0.44 -0.49)"/><path class="cls-7" d="M155.48,84.82a.41.41,0,0,1-.4-.35,4.59,4.59,0,0,1,1.62-3.9.4.4,0,1,1,.53.61,3.76,3.76,0,0,0-1.35,3.17.41.41,0,0,1-.34.46Z" transform="translate(-0.44 -0.49)"/><path class="cls-7" d="M176.76,106.13a.41.41,0,0,1-.38-.55l1.8-4.62a.41.41,0,1,1,.76.3l-1.8,4.61A.41.41,0,0,1,176.76,106.13Z" transform="translate(-0.44 -0.49)"/><path class="cls-9" d="M246.46,146.18l-4.15-1.26-2.63-25s2.62-7.67,6.43-6.54C252,115.17,246.46,146.18,246.46,146.18Z" transform="translate(-0.44 -0.49)"/><path class="cls-7" d="M241.86,140.65l5.57-.71c.38-2.75.8-6.11,1.07-9.52,0-1.31-7.43,2.72-7.43,2.72Z" transform="translate(-0.44 -0.49)"/><path class="cls-5" d="M217.44,92.59l21.37,24.17s1.24,16,1.84,21.93c2.69,0,5.19.16,8,0,.09-.1,2.18-20.28,1-25.26-.84-3.48-15.83-30.68-29.83-33C210.66,78.9,217.44,92.59,217.44,92.59Z" transform="translate(-0.44 -0.49)"/><path class="cls-9" d="M243.31,147.53c1.12,1.53,6.76,7.17,7.3,5.44.34-1.07-3.93-9-5.31-9.7C242.21,141.63,241.8,145.47,243.31,147.53Z" transform="translate(-0.44 -0.49)"/><path class="cls-9" d="M242.38,144.94a9,9,0,0,0,.69,5.32c.57.78,1.4-2.45,1.61-3.47Z" transform="translate(-0.44 -0.49)"/><path class="cls-7" d="M238.79,117.22a.39.39,0,0,1-.33-.17.41.41,0,0,1,.09-.57l3.71-2.6a.41.41,0,0,1,.57.1.42.42,0,0,1-.1.57l-3.71,2.6A.39.39,0,0,1,238.79,117.22Z" transform="translate(-0.44 -0.49)"/><path class="cls-9" d="M212.7,83.66c-1.54,0-5.38-1.28-5.19-3.65.36-3.53,1.62-7.18,2.1-10.73l6.27,0c.47,3.55,1.7,7.21,2,10.74C218.09,82.42,214.24,83.66,212.7,83.66Z" transform="translate(-0.44 -0.49)"/><path class="cls-7" d="M208.54,74.08c.74,2.54,2.33,4.29,4.18,4.3s3.44-1.74,4.21-4.27c-.34-1.61-.65-3.22-.85-4.81l-6.67,0C209.21,70.87,208.88,72.47,208.54,74.08Z" transform="translate(-0.44 -0.49)"/><path class="cls-9" d="M223,59.39a10.22,10.22,0,1,0-20.43-.07c0,3,1.28,16.46,10.16,16.49S223,62.35,223,59.39Z" transform="translate(-0.44 -0.49)"/><path class="cls-9" d="M222.16,63.54l-18.8-.06a2.54,2.54,0,0,0,0,5.07l18.81.06a2.54,2.54,0,0,0,0-5.07Z" transform="translate(-0.44 -0.49)"/><path class="cls-7" d="M210,66.16c0,.56-.35,1-.77,1s-.77-.46-.77-1a.92.92,0,0,1,.77-1C209.64,65.13,210,65.59,210,66.16Z" transform="translate(-0.44 -0.49)"/><path class="cls-7" d="M217.06,66.18c0,.56-.34,1-.76,1s-.77-.46-.77-1,.35-1,.77-1S217.07,65.61,217.06,66.18Z" transform="translate(-0.44 -0.49)"/><path class="cls-7" d="M207,63.18c.22,0,3.15,0,3.11-.23C209.85,61.55,207.2,62.52,207,63.18Z" transform="translate(-0.44 -0.49)"/><path class="cls-7" d="M215.44,63c0,.23,2.88.23,3.1.25C218.32,62.56,215.69,61.57,215.44,63Z" transform="translate(-0.44 -0.49)"/><path class="cls-7" d="M213.22,67.92c0,.78-.94.78-.94,0a11.45,11.45,0,0,1,.47-1.55A11.92,11.92,0,0,1,213.22,67.92Z" transform="translate(-0.44 -0.49)"/><path class="cls-5" d="M209,65.5c0,.36-.22.66-.49.66s-.49-.3-.49-.66.22-.66.49-.65S209,65.14,209,65.5Z" transform="translate(-0.44 -0.49)"/><path class="cls-5" d="M216.18,65.52c0,.37-.22.66-.49.66s-.49-.3-.49-.66.22-.65.49-.65S216.18,65.16,216.18,65.52Z" transform="translate(-0.44 -0.49)"/><path class="cls-5" d="M209.81,69.33a3.18,3.18,0,0,0,5.87,0Z" transform="translate(-0.44 -0.49)"/><path class="cls-7" d="M205.93,54Z" transform="translate(-0.44 -0.49)"/><path class="cls-7" d="M203,67.07c2.06.63,2.91-12.4,2.94-12.86C200.07,48.53,200.76,66.39,203,67.07Z" transform="translate(-0.44 -0.49)"/><path class="cls-7" d="M219.6,54.25c0,.46.8,13.5,2.87,12.88C224.7,66.46,225.49,48.61,219.6,54.25Z" transform="translate(-0.44 -0.49)"/><path class="cls-7" d="M219.6,54.07Z" transform="translate(-0.44 -0.49)"/><path class="cls-7" d="M221.89,53.41c0,2.21-12.56,6.85-17.59,6.83s-1.18-11.7,8.9-11.67C218.23,48.59,221.9,51.2,221.89,53.41Z" transform="translate(-0.44 -0.49)"/><path class="cls-5" d="M203.07,68.41a.94.94,0,1,0,.94.94A.93.93,0,0,0,203.07,68.41Z" transform="translate(-0.44 -0.49)"/><path class="cls-5" d="M222.42,68.46a.94.94,0,1,0,.94.94A.95.95,0,0,0,222.42,68.46Z" transform="translate(-0.44 -0.49)"/><path class="cls-7" d="M212.66,84.82c-4.44,0-6.79-4.21-6.89-4.39a1.17,1.17,0,0,1,2-1.12s1.8,3.18,4.84,3.18h0a5.46,5.46,0,0,0,4.72-3.1,1.17,1.17,0,0,1,2.13,1,7.8,7.8,0,0,1-6.83,4.47Z" transform="translate(-0.44 -0.49)"/></g><rect class="cls-10" x="125.42" y="142.66" width="170.85" height="12.97"/><rect class="cls-5" x="130.27" y="146.94" width="4.4" height="4.4"/><polygon class="cls-5" points="138.76 151.34 138.76 146.94 143.16 149.14 138.76 151.34"/><path class="cls-5" d="M276.3,149.89H148.41a.41.41,0,0,1-.41-.41.41.41,0,0,1,.41-.41H276.3a.41.41,0,0,1,.4.41A.4.4,0,0,1,276.3,149.89Z" transform="translate(-0.44 -0.49)"/><path class="cls-7" d="M239.3,149.89H148.41a.41.41,0,0,1-.41-.41.41.41,0,0,1,.41-.41H239.3a.41.41,0,0,1,.41.41A.41.41,0,0,1,239.3,149.89Z" transform="translate(-0.44 -0.49)"/><path class="cls-7" d="M241.27,149.48a2.21,2.21,0,1,1-2.21-2.21A2.21,2.21,0,0,1,241.27,149.48Z" transform="translate(-0.44 -0.49)"/><path class="cls-5" d="M290.3,152.23h-6.63a.4.4,0,0,1-.41-.4v-4.4a.4.4,0,0,1,.41-.4h6.63a.4.4,0,0,1,.41.4v4.4A.4.4,0,0,1,290.3,152.23Zm-6.23-.81h5.83v-3.58h-5.83Z" transform="translate(-0.44 -0.49)"/><rect class="cls-11" x="113.76" y="14.59" width="82.27" height="39.68" rx="19.83"/><path class="cls-7" d="M161.25,70.54a.43.43,0,0,1-.28-.11L149.26,59.59H133.05a24.75,24.75,0,0,1,0-49.5h44.27a24.75,24.75,0,0,1,0,49.5H161.81l-.16,10.55a.38.38,0,0,1-.24.36A.47.47,0,0,1,161.25,70.54Zm-28.2-59.63a23.94,23.94,0,1,0,0,47.87h16.37a.43.43,0,0,1,.28.11l11.16,10.32.15-10a.4.4,0,0,1,.4-.4h15.91a23.94,23.94,0,1,0,0-47.87Z" transform="translate(-0.44 -0.49)"/><path class="cls-7" d="M180.89,31.65H129.48a.41.41,0,0,1,0-.81h51.41a.41.41,0,0,1,0,.81Z" transform="translate(-0.44 -0.49)"/><path class="cls-7" d="M146.45,24.62h-17a.41.41,0,0,1,0-.81h17a.41.41,0,1,1,0,.81Z" transform="translate(-0.44 -0.49)"/><path class="cls-7" d="M180.89,24.62H158.13a.41.41,0,1,1,0-.81h22.76a.41.41,0,0,1,0,.81Z" transform="translate(-0.44 -0.49)"/><path class="cls-7" d="M157.38,45.73h0l-27.9,0a.41.41,0,0,1,0-.81h0l27.9,0a.41.41,0,1,1,0,.82Z" transform="translate(-0.44 -0.49)"/><path class="cls-7" d="M167.81,45.73a.41.41,0,0,1,0-.82l13.08,0h0a.41.41,0,0,1,0,.81l-13.08,0Z" transform="translate(-0.44 -0.49)"/><path class="cls-7" d="M180.89,38.67H129.48a.41.41,0,0,1,0-.81h51.41a.41.41,0,0,1,0,.81Z" transform="translate(-0.44 -0.49)"/><path class="cls-10" d="M65,173.12,76.22,198.4l14,7.19-1,5s-12.88-2.44-16.13-4c-2.86-1-18-27.39-18-27.39Z" transform="translate(-0.44 -0.49)"/><path class="cls-7" d="M75.4,201.86h-.1a.41.41,0,0,1-.29-.5l.82-3a.42.42,0,0,1,.5-.29.41.41,0,0,1,.29.5l-.83,3.05A.4.4,0,0,1,75.4,201.86Z" transform="translate(-0.44 -0.49)"/><path class="cls-7" d="M91.79,269.92a.4.4,0,0,1-.37-.26.31.31,0,0,1,0-.13.5.5,0,0,1,0-.21c.33-1.31,1.12-2.36,1.86-2.46a.8.8,0,0,1,.82.45,1.14,1.14,0,0,1,.09,1c-.3.83-1.51,1.32-2.1,1.55l-.1.05A.45.45,0,0,1,91.79,269.92Zm1.54-2.22c-.16,0-.59.37-.91,1.1.41-.21.86-.49,1-.79a.37.37,0,0,0,0-.31Z" transform="translate(-0.44 -0.49)"/><polygon class="cls-10" points="86.42 264.64 91 264.14 91.42 268.71 96.24 274.03 87.29 274.03 86.42 264.64"/><path class="cls-8" d="M61.12,204.28s30.84,1.45,31.3,15.27c.78,23-.43,46.86-.43,46.86l-5.46.71L78.3,223.75,61.12,222.6Z" transform="translate(-0.44 -0.49)"/><path class="cls-7" d="M72.7,269.53a.39.39,0,0,1-.37-.25.32.32,0,0,1,0-.14.44.44,0,0,1,0-.2c.33-1.31,1.13-2.36,1.86-2.46a.79.79,0,0,1,.82.45,1.13,1.13,0,0,1,.09,1c-.3.83-1.51,1.32-2.1,1.55l-.1,0A.45.45,0,0,1,72.7,269.53Zm1.55-2.22c-.16,0-.6.38-.92,1.11.41-.21.86-.49,1-.79a.37.37,0,0,0,0-.31Z" transform="translate(-0.44 -0.49)"/><polygon class="cls-10" points="67.33 264.26 71.91 263.76 72.34 268.33 77.15 273.65 68.2 273.65 67.33 264.26"/><path class="cls-8" d="M42,203.89s30.84,1.46,31.31,15.28c.77,23-.44,46.86-.44,46.86l-5.46.71-8.23-43.38L42,222.22Z" transform="translate(-0.44 -0.49)"/><polygon class="cls-9" points="42 149.54 41.2 167.14 51.08 167.46 50.03 149.5 42 149.54"/><path class="cls-9" d="M50.58,161.71l1.36-14.39c.29-.94,4.59-2.66,4.59-2.66s1.53,12.28,0,14.8C55.36,161.28,50.58,161.71,50.58,161.71Z" transform="translate(-0.44 -0.49)"/><path class="cls-7" d="M41.83,159.39c5.13.05,10.67,1.89,12.65-3.26.43-1.13.21-2.55,1.09-5.64,0,0,10.94-15.86-13.06-11.41-3.51.65-5.06,4.78-4.8,8.2C38.14,152.86,41.83,159.39,41.83,159.39Z" transform="translate(-0.44 -0.49)"/><path class="cls-9" d="M55.77,150.41c-1.18-.22-3.22-.58-3,1.53a2.71,2.71,0,0,0,3,2.44Z" transform="translate(-0.44 -0.49)"/><path class="cls-5" d="M48.05,142.6a6.1,6.1,0,1,1-6.1-5.78A5.95,5.95,0,0,1,48.05,142.6Z" transform="translate(-0.44 -0.49)"/><ellipse class="cls-7" cx="38.68" cy="139.37" rx="7.82" ry="7.42"/><path class="cls-7" d="M62.84,274.74h0a.41.41,0,0,1-.38-.44l3.82-51.16a.41.41,0,0,1,.81.06l-3.82,51.16A.4.4,0,0,1,62.84,274.74Z" transform="translate(-0.44 -0.49)"/><path class="cls-7" d="M23.9,274.74h0a.41.41,0,0,1-.38-.44l3.82-51.16a.41.41,0,0,1,.81.06L24.3,274.36A.4.4,0,0,1,23.9,274.74Z" transform="translate(-0.44 -0.49)"/><path class="cls-7" d="M50.24,274.74a.42.42,0,0,1-.41-.38L46,223.2a.41.41,0,0,1,.81-.06l3.81,51.16a.41.41,0,0,1-.37.44Z" transform="translate(-0.44 -0.49)"/><path class="cls-7" d="M89.18,274.74a.42.42,0,0,1-.41-.38L85,223.2a.4.4,0,0,1,.37-.43.39.39,0,0,1,.44.37l3.81,51.16a.41.41,0,0,1-.37.44Z" transform="translate(-0.44 -0.49)"/><path class="cls-12" d="M73.63,226.42H32.12l-5.19-56.2a6.87,6.87,0,0,1,6.83-7.56H61.47a6.87,6.87,0,0,1,6.83,6.17Z" transform="translate(-0.44 -0.49)"/><polygon class="cls-12" points="85.28 218.01 35.35 218.01 35.35 225.93 86.01 225.93 85.28 218.01"/><path class="cls-3" d="M67.54,226.42H26l-5.19-56.2a6.86,6.86,0,0,1,6.82-7.56H55.38a6.87,6.87,0,0,1,6.83,6.17Z" transform="translate(-0.44 -0.49)"/><path class="cls-13" d="M25.05,215.77l38-38-.83-8.95s0-.07,0-.11l-38,38Z" transform="translate(-0.44 -0.49)"/><path class="cls-5" d="M25,216.18a.41.41,0,0,1-.28-.69l38-38a.42.42,0,0,1,.57,0,.41.41,0,0,1,0,.58l-38,38A.4.4,0,0,1,25,216.18Z" transform="translate(-0.44 -0.49)"/><path class="cls-7" d="M67.54,226.83a.4.4,0,0,1-.4-.37L61.8,168.87a6.42,6.42,0,0,0-6.42-5.8.41.41,0,0,1,0-.81,7.24,7.24,0,0,1,7.23,6.53L68,226.38a.41.41,0,0,1-.37.44Z" transform="translate(-0.44 -0.49)"/><path class="cls-14" d="M125.09,173.12l11.23,25.28,14,7.19-1,5s-12.89-2.44-16.13-4c-2.87-1-18-27.39-18-27.39Z" transform="translate(-0.44 -0.49)"/><path class="cls-7" d="M135.5,201.86h-.11a.41.41,0,0,1-.28-.5l.82-3a.41.41,0,0,1,.5-.29.41.41,0,0,1,.28.5l-.82,3.05A.41.41,0,0,1,135.5,201.86Z" transform="translate(-0.44 -0.49)"/><path class="cls-7" d="M152,269.92a.42.42,0,0,1-.38-.26.32.32,0,0,1,0-.14.34.34,0,0,1,0-.2c.32-1.31,1.12-2.36,1.85-2.46a.81.81,0,0,1,.83.45,1.21,1.21,0,0,1,.09,1c-.3.83-1.52,1.32-2.1,1.55l-.11.05A.4.4,0,0,1,152,269.92Zm1.54-2.22c-.16,0-.59.37-.92,1.1a2,2,0,0,0,1-.79.32.32,0,0,0,0-.31Z" transform="translate(-0.44 -0.49)"/><polygon class="cls-8" points="146.65 264.64 151.23 264.14 151.65 268.71 156.47 274.03 147.52 274.03 146.65 264.64"/><path class="cls-10" d="M121.35,204.28s30.84,1.45,31.3,15.27c.78,23-.44,46.86-.44,46.86l-5.46.71-8.22-43.37-17.18-1.15Z" transform="translate(-0.44 -0.49)"/><path class="cls-7" d="M132.93,269.53a.41.41,0,0,1-.38-.25l0-.14a.45.45,0,0,1,0-.2c.33-1.31,1.12-2.36,1.86-2.46a.8.8,0,0,1,.82.45,1.13,1.13,0,0,1,.09,1c-.3.83-1.51,1.32-2.1,1.55l-.11,0A.37.37,0,0,1,132.93,269.53Zm1.54-2.22c-.16,0-.59.38-.91,1.1a2,2,0,0,0,1-.78.37.37,0,0,0,0-.31Z" transform="translate(-0.44 -0.49)"/><polygon class="cls-8" points="127.56 264.26 132.14 263.76 132.56 268.33 137.38 273.65 128.43 273.65 127.56 264.26"/><path class="cls-10" d="M102.26,203.89s30.84,1.46,31.3,15.28c.78,23-.44,46.86-.44,46.86l-5.45.71-8.23-43.38-17.18-1.14Z" transform="translate(-0.44 -0.49)"/><polygon class="cls-14" points="102.23 149.54 101.43 167.14 111.31 167.46 110.26 149.5 102.23 149.54"/><path class="cls-14" d="M110.81,161.71l1.35-14.39c.29-.94,4.6-2.66,4.6-2.66s1.53,12.28,0,14.8C115.59,161.28,110.81,161.71,110.81,161.71Z" transform="translate(-0.44 -0.49)"/><path class="cls-7" d="M102.06,159.39c5.13.05,10.67,1.89,12.65-3.26.6-1.56.6-9.5,2.86-11.37,7.46-6.15-9.73-7.73-14.83-5.68a8.05,8.05,0,0,0-4.8,8.2C98.37,152.86,102.06,159.39,102.06,159.39Z" transform="translate(-0.44 -0.49)"/><path class="cls-14" d="M116,150.41c-1.18-.22-3.22-.58-3,1.53a2.71,2.71,0,0,0,3,2.44Z" transform="translate(-0.44 -0.49)"/><path class="cls-7" d="M123.06,274.74h0a.41.41,0,0,1-.37-.44l3.82-51.16a.39.39,0,0,1,.43-.37.41.41,0,0,1,.38.43l-3.82,51.16A.41.41,0,0,1,123.06,274.74Z" transform="translate(-0.44 -0.49)"/><path class="cls-7" d="M84.12,274.74h0a.41.41,0,0,1-.37-.44l3.82-51.16a.39.39,0,0,1,.43-.37.41.41,0,0,1,.38.43l-3.82,51.16A.42.42,0,0,1,84.12,274.74Z" transform="translate(-0.44 -0.49)"/><path class="cls-7" d="M110.47,274.74a.41.41,0,0,1-.41-.38l-3.82-51.16a.41.41,0,0,1,.38-.43.38.38,0,0,1,.43.37l3.82,51.16a.41.41,0,0,1-.37.44Z" transform="translate(-0.44 -0.49)"/><path class="cls-7" d="M149.41,274.74a.42.42,0,0,1-.41-.38l-3.82-51.16a.41.41,0,0,1,.38-.43.38.38,0,0,1,.43.37l3.82,51.16a.41.41,0,0,1-.37.44Z" transform="translate(-0.44 -0.49)"/><path class="cls-12" d="M133.86,226.42H92.35l-5.19-56.2A6.86,6.86,0,0,1,94,162.66H121.7a6.87,6.87,0,0,1,6.83,6.17Z" transform="translate(-0.44 -0.49)"/><polygon class="cls-12" points="145.51 218.01 95.57 218.01 95.57 225.93 146.24 225.93 145.51 218.01"/><path class="cls-3" d="M127.64,226.42H86.12l-5.19-56.2a6.87,6.87,0,0,1,6.83-7.56h27.72a6.86,6.86,0,0,1,6.82,6.17Z" transform="translate(-0.44 -0.49)"/><path class="cls-13" d="M85.14,215.77l38-38-.83-8.95s0-.07,0-.11l-38,38Z" transform="translate(-0.44 -0.49)"/><path class="cls-5" d="M85.14,216.18a.41.41,0,0,1-.29-.69l38-38a.42.42,0,0,1,.57,0,.41.41,0,0,1,0,.58l-38,38A.4.4,0,0,1,85.14,216.18Z" transform="translate(-0.44 -0.49)"/><path class="cls-7" d="M127.64,226.83a.41.41,0,0,1-.41-.37l-5.33-57.59a6.44,6.44,0,0,0-6.42-5.8.41.41,0,1,1,0-.81,7.24,7.24,0,0,1,7.23,6.53L128,226.38a.4.4,0,0,1-.37.44Z" transform="translate(-0.44 -0.49)"/><path class="cls-7" d="M218.06,186.35H194a2.17,2.17,0,0,1-1.61-.71,2.14,2.14,0,0,1-.56-1.67l1.58-17.07a2.16,2.16,0,0,1,2.17-2h24.11a2.2,2.2,0,0,1,1.61.71,2.17,2.17,0,0,1,.55,1.67l-1.57,17.07A2.18,2.18,0,0,1,218.06,186.35Zm-22.53-20.62a1.35,1.35,0,0,0-1.36,1.24L192.59,184a1.31,1.31,0,0,0,.35,1.05,1.34,1.34,0,0,0,1,.45h24.11a1.37,1.37,0,0,0,1.36-1.25L221,167.22a1.39,1.39,0,0,0-1.36-1.49Z" transform="translate(-0.44 -0.49)"/><polygon class="cls-8" points="215.96 181.59 195.38 181.59 196.82 167.91 217.39 167.91 215.96 181.59"/><polygon class="cls-7" points="215.87 182.38 195.3 182.38 195.47 180.82 216.04 180.82 215.87 182.38"/><path class="cls-14" d="M220.57,185l-2.75-1.88-16.2,10.36s-3.35,5.23-.84,7C204.65,203.14,220.57,185,220.57,185Z" transform="translate(-0.44 -0.49)"/><path class="cls-7" d="M215.06,184.88l2.23,3.68c-1.46,1.54-3.28,3.39-5.18,5.19-.79.62-1.93-5.76-1.93-5.76Z" transform="translate(-0.44 -0.49)"/><path class="cls-10" d="M187.67,171.32l14.76,20.93,10.84-7.07,3.9,4.59S205,202.2,201.51,201.28c-5.2-1.26-19.84-16.85-22.1-24.71C178.79,174.42,187.67,171.32,187.67,171.32Z" transform="translate(-0.44 -0.49)"/><path class="cls-14" d="M218.11,182.33c.74-1.26,2.4-4.4,3.55-4,.82.27,0,6.49-1.53,7.25C217.74,186.77,217.12,184,218.11,182.33Z" transform="translate(-0.44 -0.49)"/><path class="cls-14" d="M217.82,184.82c-.41-1.3-.37-5,.4-5,.38,0,.75,2.18,1,2.94Z" transform="translate(-0.44 -0.49)"/><path class="cls-7" d="M203,196.38a.4.4,0,0,1-.4-.36l-.41-3.78a.41.41,0,1,1,.81-.08l.41,3.77a.42.42,0,0,1-.36.45Z" transform="translate(-0.44 -0.49)"/><path class="cls-7" d="M212.25,269.92a.41.41,0,0,1-.38-.26.32.32,0,0,1,0-.14.34.34,0,0,1,0-.2c.32-1.31,1.12-2.36,1.85-2.46a.81.81,0,0,1,.83.45,1.21,1.21,0,0,1,.09,1c-.31.83-1.52,1.32-2.1,1.55l-.11.05A.4.4,0,0,1,212.25,269.92Zm1.54-2.22c-.16,0-.59.37-.92,1.1a2,2,0,0,0,1-.79.33.33,0,0,0,0-.31Z" transform="translate(-0.44 -0.49)"/><polygon class="cls-10" points="206.87 264.64 211.46 264.14 211.88 268.71 216.69 274.03 207.75 274.03 206.87 264.64"/><path class="cls-8" d="M181.57,204.28s30.84,1.45,31.31,15.27c.77,23-.44,46.86-.44,46.86l-5.46.71-8.23-43.37-17.18-1.15Z" transform="translate(-0.44 -0.49)"/><path class="cls-7" d="M193.16,269.53a.41.41,0,0,1-.38-.25.32.32,0,0,1,0-.14.34.34,0,0,1,0-.2c.32-1.31,1.12-2.36,1.85-2.46a.81.81,0,0,1,.83.45,1.21,1.21,0,0,1,.09,1c-.3.83-1.52,1.32-2.1,1.55l-.11,0Zm1.54-2.22c-.16,0-.59.38-.92,1.1a1.93,1.93,0,0,0,1-.78.31.31,0,0,0,0-.31Z" transform="translate(-0.44 -0.49)"/><polygon class="cls-10" points="187.78 264.26 192.37 263.76 192.79 268.33 197.61 273.65 188.66 273.65 187.78 264.26"/><path class="cls-8" d="M162.49,203.89s30.83,1.46,31.3,15.28c.78,23-.44,46.86-.44,46.86l-5.46.71-8.23-43.38-17.17-1.14Z" transform="translate(-0.44 -0.49)"/><polygon class="cls-14" points="162.46 149.54 161.66 167.14 171.53 167.46 170.49 149.5 162.46 149.54"/><path class="cls-14" d="M171,161.71l1.36-14.39c.29-.94,4.27-3.95,4.59-2.66.82,3.26,1.54,12.28,0,14.8C175.82,161.28,171,161.71,171,161.71Z" transform="translate(-0.44 -0.49)"/><path class="cls-7" d="M162.17,159.38c4.62,1.92,9.09,1.82,11.55-3.11,1.88-3.75,4.27-8,3.81-12.34a5.7,5.7,0,0,0-4.77-5.09c-4.36-1-11.38-.43-13.65,3.93a7.75,7.75,0,0,0-.68,1.81C157.7,147.75,160.3,158.61,162.17,159.38Z" transform="translate(-0.44 -0.49)"/><path class="cls-14" d="M176.63,150.44c-1.18-.22-3.62-.61-3.42,1.5a2.71,2.71,0,0,0,3,2.44Z" transform="translate(-0.44 -0.49)"/><path class="cls-7" d="M183.29,274.74h0a.41.41,0,0,1-.37-.44l3.81-51.16a.41.41,0,0,1,.81.06l-3.81,51.16A.42.42,0,0,1,183.29,274.74Z" transform="translate(-0.44 -0.49)"/><path class="cls-7" d="M144.35,274.74h0a.41.41,0,0,1-.37-.44l3.81-51.16a.41.41,0,0,1,.81.06l-3.81,51.16A.42.42,0,0,1,144.35,274.74Z" transform="translate(-0.44 -0.49)"/><path class="cls-7" d="M170.69,274.74a.4.4,0,0,1-.4-.38l-3.82-51.16a.4.4,0,0,1,.38-.43.39.39,0,0,1,.43.37l3.82,51.16a.41.41,0,0,1-.38.44Z" transform="translate(-0.44 -0.49)"/><path class="cls-7" d="M209.63,274.74a.4.4,0,0,1-.4-.38l-3.82-51.16a.4.4,0,0,1,.38-.43.39.39,0,0,1,.43.37L210,274.3a.41.41,0,0,1-.38.44Z" transform="translate(-0.44 -0.49)"/><path class="cls-12" d="M194.09,226.42H152.57l-5.19-56.2a6.87,6.87,0,0,1,6.83-7.56h27.72a6.86,6.86,0,0,1,6.82,6.17Z" transform="translate(-0.44 -0.49)"/><polygon class="cls-12" points="205.73 218.01 155.8 218.01 155.8 225.93 206.47 225.93 205.73 218.01"/><path class="cls-3" d="M188.32,226.42H146.8l-5.19-56.2a6.87,6.87,0,0,1,6.83-7.56h27.72a6.86,6.86,0,0,1,6.82,6.17Z" transform="translate(-0.44 -0.49)"/><path class="cls-13" d="M145.82,215.77l38-38-.83-8.95s0-.07,0-.11l-38,38Z" transform="translate(-0.44 -0.49)"/><path class="cls-5" d="M145.82,216.18a.42.42,0,0,1-.29-.12.4.4,0,0,1,0-.57l38-38a.42.42,0,0,1,.57,0,.41.41,0,0,1,0,.58l-38,38A.42.42,0,0,1,145.82,216.18Z" transform="translate(-0.44 -0.49)"/><path class="cls-7" d="M188.32,226.83a.41.41,0,0,1-.41-.37l-5.33-57.59a6.44,6.44,0,0,0-6.42-5.8.41.41,0,1,1,0-.81,7.24,7.24,0,0,1,7.23,6.53l5.33,57.59a.4.4,0,0,1-.37.44Z" transform="translate(-0.44 -0.49)"/><path class="cls-5" d="M167.83,156a5.54,5.54,0,1,1-5.54-5.53A5.54,5.54,0,0,1,167.83,156Z" transform="translate(-0.44 -0.49)"/><path class="cls-7" d="M170.76,162.47c0,.88-1.28,1.59-1.5,2.4s.53,2.09.1,2.82-1.89.72-2.49,1.33-.58,2.06-1.33,2.49-2-.32-2.82-.1-1.52,1.5-2.4,1.5-1.58-1.28-2.39-1.5-2.09.53-2.83.1-.71-1.89-1.32-2.49-2.06-.58-2.5-1.33.33-2,.1-2.82-1.49-1.52-1.49-2.4,1.27-1.58,1.49-2.39-.52-2.09-.1-2.83,1.89-.71,2.5-1.32.58-2.06,1.32-2.5,2,.33,2.83.1,1.51-1.49,2.39-1.49,1.59,1.27,2.4,1.49,2.09-.52,2.82-.1.72,1.89,1.33,2.5,2.06.58,2.49,1.32-.32,2-.1,2.83S170.76,161.59,170.76,162.47Z" transform="translate(-0.44 -0.49)"/><path class="cls-11" d="M35.78.49A35.34,35.34,0,1,0,71.12,35.82,35.37,35.37,0,0,0,35.78.49Zm18.28,26.7h8.53A27.73,27.73,0,0,1,64,35.82a27.7,27.7,0,0,1-1.44,8.64H54.06a30.07,30.07,0,0,0,1.34-8.64A30.06,30.06,0,0,0,54.06,27.19Zm-5.75,8.63a24.3,24.3,0,0,1-1.7,8.64H25a24.38,24.38,0,0,1-1.7-8.64A24.4,24.4,0,0,1,25,27.19H46.61A24.29,24.29,0,0,1,48.31,35.82Zm2.9-15.72A56.29,56.29,0,0,0,43.42,8.77,28,28,0,0,1,59.08,20.1Zm-8.12,0H28.48A54.34,54.34,0,0,1,35.79,11,55.31,55.31,0,0,1,43.09,20.1ZM28.15,8.77A55.88,55.88,0,0,0,20.36,20.1H12.49A28,28,0,0,1,28.15,8.77ZM9,27.19h8.53a29.84,29.84,0,0,0-1.35,8.63,29.8,29.8,0,0,0,1.35,8.64H9a27.62,27.62,0,0,1-1.45-8.64A27.6,27.6,0,0,1,9,27.19ZM20.36,51.55A57.57,57.57,0,0,0,28.17,62.9,28,28,0,0,1,12.49,51.55Zm22.73,0a55.24,55.24,0,0,1-7.31,9.11,54.48,54.48,0,0,1-7.31-9.11Zm.31,11.34a57.05,57.05,0,0,0,7.81-11.34h7.88A28,28,0,0,1,43.4,62.89Z" transform="translate(-0.44 -0.49)"/><path class="cls-7" d="M327.3,120.48a.4.4,0,0,1-.29-.12.38.38,0,0,1-.12-.29l0-4a16.2,16.2,0,0,1-5.61-2.28l-2.89,2.87a.41.41,0,0,1-.58,0l-4.13-4.1a.41.41,0,0,1,0-.58l2.89-2.87a16,16,0,0,1-2.3-5.58l-4.06,0a.34.34,0,0,1-.29-.12.38.38,0,0,1-.12-.29l0-5.84a.42.42,0,0,1,.4-.41l4.07,0a16.29,16.29,0,0,1,2.36-5.62l-2.86-2.83a.41.41,0,0,1,0-.58L318,83.65a.4.4,0,0,1,.57,0l2.85,2.84a16.44,16.44,0,0,1,5.65-2.36l0-4a.4.4,0,0,1,.4-.41l5.88,0a.47.47,0,0,1,.29.11.42.42,0,0,1,.12.29l0,4a16,16,0,0,1,5.61,2.28l2.89-2.88a.42.42,0,0,1,.57,0L347,87.6a.41.41,0,0,1,0,.58l-2.89,2.87a15.9,15.9,0,0,1,2.3,5.58l4.06,0a.55.55,0,0,1,.29.12.38.38,0,0,1,.12.29l0,5.84a.4.4,0,0,1-.4.4l-4.07,0a16.29,16.29,0,0,1-2.36,5.62l2.86,2.83a.41.41,0,0,1,0,.58l-4.18,4.16a.4.4,0,0,1-.57,0l-2.86-2.84A16.31,16.31,0,0,1,333.6,116l0,4a.42.42,0,0,1-.41.41l-5.87,0Zm-6.06-7.65a.39.39,0,0,1,.23.07,15.27,15.27,0,0,0,5.92,2.4.43.43,0,0,1,.34.4l0,4,5.06,0,0-4a.4.4,0,0,1,.33-.39,15.74,15.74,0,0,0,5.94-2.49.41.41,0,0,1,.52,0l2.81,2.79L346,112l-2.8-2.78a.41.41,0,0,1-.05-.52,15.43,15.43,0,0,0,2.49-5.92.41.41,0,0,1,.4-.33l4,0,0-5-4,0a.36.36,0,0,1-.4-.34,15.21,15.21,0,0,0-2.43-5.88.41.41,0,0,1,0-.52l2.84-2.82-3.56-3.53-2.84,2.82a.4.4,0,0,1-.51,0,15.27,15.27,0,0,0-5.92-2.4.42.42,0,0,1-.34-.41l0-4-5.06,0,0,4a.4.4,0,0,1-.33.39,15.7,15.7,0,0,0-5.95,2.49.4.4,0,0,1-.51,0l-2.81-2.79-3.6,3.59,2.81,2.78a.41.41,0,0,1,.05.52,15.43,15.43,0,0,0-2.49,5.92.41.41,0,0,1-.4.33l-4,0,0,5,4,0a.4.4,0,0,1,.4.33,15.19,15.19,0,0,0,2.43,5.89.39.39,0,0,1-.05.51l-2.84,2.83,3.56,3.53L321,113A.39.39,0,0,1,321.24,112.83Zm29.18-10Zm-20.17,5.53a8.39,8.39,0,0,1-5.93-2.43,8.27,8.27,0,0,1-2.45-5.9,8.42,8.42,0,0,1,2.51-6,8.53,8.53,0,0,1,12-.08,8.32,8.32,0,0,1,2.46,5.91,8.44,8.44,0,0,1-2.52,6h0A8.55,8.55,0,0,1,330.25,108.39Zm.19-16A7.77,7.77,0,0,0,325,94.6a7.66,7.66,0,0,0-2.27,5.46,7.49,7.49,0,0,0,2.21,5.33,7.71,7.71,0,0,0,10.85-.08A7.63,7.63,0,0,0,338,99.86a7.49,7.49,0,0,0-2.21-5.33A7.61,7.61,0,0,0,330.44,92.34ZM336,105.6h0Z" transform="translate(-0.44 -0.49)"/><circle class="cls-11" cx="311.27" cy="176.69" r="12.95" transform="translate(67 438.22) rotate(-76.64)"/><path class="cls-15" d="M316.25,176.79,308.61,182a.37.37,0,0,1-.58-.31V171.66a.37.37,0,0,1,.57-.31l7.64,4.82A.37.37,0,0,1,316.25,176.79Z" transform="translate(-0.44 -0.49)"/><circle class="cls-11" cx="90.4" cy="100.06" r="19.84" transform="translate(-44.72 92.74) rotate(-45)"/><path class="cls-15" d="M98.79,100.23l-11.7,8a.57.57,0,0,1-.89-.47V92.37a.57.57,0,0,1,.87-.48l11.7,7.38A.58.58,0,0,1,98.79,100.23Z" transform="translate(-0.44 -0.49)"/><path class="cls-7" d="M90.4,122.42a22.36,22.36,0,1,1,22.36-22.36A22.38,22.38,0,0,1,90.4,122.42Zm0-43.9a21.55,21.55,0,1,0,21.54,21.54A21.57,21.57,0,0,0,90.4,78.52Z" transform="translate(-0.44 -0.49)"/><rect class="cls-16" x="234.98" y="249.48" width="104.97" height="21.51"/><path class="cls-7" d="M340.39,255.75h-105a.41.41,0,0,1,0-.81h105a.41.41,0,1,1,0,.81Z" transform="translate(-0.44 -0.49)"/><path class="cls-7" d="M340.39,266.51h-105a.4.4,0,0,1-.4-.41.41.41,0,0,1,.4-.41h105a.41.41,0,0,1,.41.41A.41.41,0,0,1,340.39,266.51Z" transform="translate(-0.44 -0.49)"/><path class="cls-7" d="M340.39,261.13h-105a.41.41,0,0,1,0-.81h105a.41.41,0,1,1,0,.81Z" transform="translate(-0.44 -0.49)"/><rect class="cls-10" x="230.53" y="246.95" width="111.61" height="3.02" transform="translate(572.23 496.43) rotate(180)"/><rect class="cls-10" x="230.53" y="271.48" width="111.61" height="3.02" transform="translate(572.23 545.49) rotate(180)"/><path class="cls-10" d="M230.53,250h4.89v21.51h-4.89A18.08,18.08,0,0,1,230.53,250Z" transform="translate(-0.44 -0.49)"/><rect class="cls-3" x="245.28" y="199.72" width="50.1" height="17.26" transform="translate(540.23 416.22) rotate(180)"/><rect class="cls-5" x="294.94" y="199.23" width="38.17" height="17.26"/><path class="cls-7" d="M333.56,204.44H295.39a.41.41,0,1,1,0-.81h38.17a.41.41,0,1,1,0,.81Z" transform="translate(-0.44 -0.49)"/><path class="cls-7" d="M333.56,213.07H295.39a.41.41,0,1,1,0-.81h38.17a.41.41,0,1,1,0,.81Z" transform="translate(-0.44 -0.49)"/><path class="cls-7" d="M333.56,208.76H295.39a.41.41,0,1,1,0-.81h38.17a.41.41,0,1,1,0,.81Z" transform="translate(-0.44 -0.49)"/><rect class="cls-12" x="245.28" y="197.3" width="89.68" height="2.42" transform="translate(579.8 396.53) rotate(180)"/><rect class="cls-12" x="245.28" y="216.98" width="89.68" height="2.42" transform="translate(579.8 435.9) rotate(180)"/><rect class="cls-16" x="228.73" y="222.41" width="104.97" height="21.51" transform="translate(561.98 465.83) rotate(180)"/><path class="cls-7" d="M333.7,228.19h-105a.41.41,0,1,1,0-.81h105a.41.41,0,1,1,0,.81Z" transform="translate(-0.44 -0.49)"/><path class="cls-7" d="M333.7,238.94h-105a.41.41,0,1,1,0-.81h105a.41.41,0,1,1,0,.81Z" transform="translate(-0.44 -0.49)"/><path class="cls-7" d="M333.7,233.57h-105a.41.41,0,0,1-.41-.41.41.41,0,0,1,.41-.41h105a.42.42,0,0,1,.41.41A.41.41,0,0,1,333.7,233.57Z" transform="translate(-0.44 -0.49)"/><rect class="cls-8" x="226.54" y="218.9" width="111.61" height="3.02"/><rect class="cls-8" x="226.54" y="243.42" width="111.61" height="3.02"/><path class="cls-8" d="M338.59,222.41H333.7v21.5h4.89A18.06,18.06,0,0,0,338.59,222.41Z" transform="translate(-0.44 -0.49)"/><polygon class="cls-10" points="308.47 223.46 313.13 219.4 317.8 223.46 317.8 208.69 308.47 208.69 308.47 223.46"/><path class="cls-7" d="M362.32,274.75H.87a.41.41,0,1,1,0-.81H362.32a.41.41,0,1,1,0,.81Z" transform="translate(-0.44 -0.49)"/><path class="cls-7" d="M318.85,282.92H44.34a.41.41,0,0,1-.41-.41.41.41,0,0,1,.41-.41H318.85a.41.41,0,0,1,.41.41A.41.41,0,0,1,318.85,282.92Z" transform="translate(-0.44 -0.49)"/></g></g></svg>